<mxfile host="app.diagrams.net" agent="Mozilla/5.0 (Windows NT 10.0; Win64; x64) AppleWebKit/537.36 (KHTML, like Gecko) Chrome/127.0.0.0 Safari/537.36" version="24.7.7">
  <diagram name="Page-1" id="iUJMPTE8WRc3Fka6V6pp">
    <mxGraphModel dx="4993" dy="1958" grid="1" gridSize="10" guides="1" tooltips="1" connect="1" arrows="1" fold="1" page="1" pageScale="1" pageWidth="850" pageHeight="1100" math="0" shadow="0">
      <root>
        <mxCell id="0" />
        <mxCell id="1" parent="0" />
        <mxCell id="CYchLR7dStGbC8uaJ82P-68" value="" style="rounded=0;whiteSpace=wrap;html=1;fillColor=none;textShadow=1;" vertex="1" parent="1">
          <mxGeometry x="-2550" y="-849.33" width="1530" height="709.33" as="geometry" />
        </mxCell>
        <mxCell id="CYchLR7dStGbC8uaJ82P-1" value="" style="shape=image;verticalLabelPosition=bottom;labelBackgroundColor=default;verticalAlign=top;aspect=fixed;imageAspect=0;image=https://cdn.freelogovectors.net/wp-content/uploads/2020/09/kainos-logo.png;textShadow=1;" vertex="1" parent="1">
          <mxGeometry x="-2550" y="-953" width="105.3" height="24.22" as="geometry" />
        </mxCell>
        <mxCell id="CYchLR7dStGbC8uaJ82P-2" value="Designed by your Workday Partner" style="text;html=1;align=center;verticalAlign=middle;whiteSpace=wrap;rounded=0;textShadow=1;" vertex="1" parent="1">
          <mxGeometry x="-2560" y="-934.22" width="200" height="30" as="geometry" />
        </mxCell>
        <mxCell id="CYchLR7dStGbC8uaJ82P-3" value="&lt;b&gt;&lt;font style=&quot;font-size: 16px;&quot;&gt;Proposed Solution Overview (Workday Perspective)&lt;/font&gt;&lt;/b&gt;" style="text;html=1;align=center;verticalAlign=middle;whiteSpace=wrap;rounded=0;fillColor=#000066;fontColor=#ffffff;strokeColor=#432D57;textShadow=1;" vertex="1" parent="1">
          <mxGeometry x="-2550" y="-904.22" width="1530" height="54.89" as="geometry" />
        </mxCell>
        <mxCell id="CYchLR7dStGbC8uaJ82P-9" style="edgeStyle=orthogonalEdgeStyle;rounded=1;orthogonalLoop=1;jettySize=auto;html=1;curved=0;textShadow=1;strokeColor=#006666;" edge="1" parent="1" source="CYchLR7dStGbC8uaJ82P-24">
          <mxGeometry relative="1" as="geometry">
            <mxPoint x="-1250" y="-470" as="targetPoint" />
            <Array as="points">
              <mxPoint x="-1615" y="-540" />
              <mxPoint x="-1615" y="-520" />
            </Array>
          </mxGeometry>
        </mxCell>
        <mxCell id="CYchLR7dStGbC8uaJ82P-10" value="&lt;span style=&quot;background-color: rgb(204, 255, 255);&quot;&gt;&amp;nbsp; &amp;nbsp; &amp;nbsp;PAYMENTS FILE&lt;/span&gt;" style="edgeLabel;html=1;align=center;verticalAlign=middle;resizable=0;points=[];textShadow=1;" vertex="1" connectable="0" parent="CYchLR7dStGbC8uaJ82P-9">
          <mxGeometry x="-0.2781" y="1" relative="1" as="geometry">
            <mxPoint x="-24" as="offset" />
          </mxGeometry>
        </mxCell>
        <mxCell id="CYchLR7dStGbC8uaJ82P-11" value="&lt;b&gt;CHAPS&lt;/b&gt;" style="edgeLabel;html=1;align=center;verticalAlign=middle;resizable=0;points=[];textShadow=1;" vertex="1" connectable="0" parent="CYchLR7dStGbC8uaJ82P-9">
          <mxGeometry x="0.3364" relative="1" as="geometry">
            <mxPoint x="-17" as="offset" />
          </mxGeometry>
        </mxCell>
        <mxCell id="CYchLR7dStGbC8uaJ82P-12" style="edgeStyle=orthogonalEdgeStyle;rounded=1;orthogonalLoop=1;jettySize=auto;html=1;exitX=1;exitY=0;exitDx=0;exitDy=42.5;exitPerimeter=0;curved=0;textShadow=1;strokeColor=#006666;entryX=0.75;entryY=0;entryDx=0;entryDy=0;" edge="1" parent="1" source="CYchLR7dStGbC8uaJ82P-24" target="CYchLR7dStGbC8uaJ82P-30">
          <mxGeometry relative="1" as="geometry">
            <mxPoint x="-1230" y="-490" as="targetPoint" />
            <Array as="points">
              <mxPoint x="-1960" y="-547" />
              <mxPoint x="-1960" y="-560" />
              <mxPoint x="-1230" y="-560" />
            </Array>
          </mxGeometry>
        </mxCell>
        <mxCell id="CYchLR7dStGbC8uaJ82P-13" style="edgeStyle=orthogonalEdgeStyle;rounded=1;orthogonalLoop=1;jettySize=auto;html=1;curved=0;textShadow=1;entryX=0.25;entryY=0;entryDx=0;entryDy=0;strokeColor=#006666;" edge="1" parent="1" source="CYchLR7dStGbC8uaJ82P-24" target="CYchLR7dStGbC8uaJ82P-30">
          <mxGeometry relative="1" as="geometry">
            <mxPoint x="-1290" y="-480" as="targetPoint" />
            <Array as="points">
              <mxPoint x="-1615" y="-510" />
              <mxPoint x="-1615" y="-480" />
              <mxPoint x="-1260" y="-480" />
            </Array>
          </mxGeometry>
        </mxCell>
        <mxCell id="CYchLR7dStGbC8uaJ82P-14" value="&lt;b&gt;SWIFT&lt;/b&gt;" style="edgeLabel;html=1;align=center;verticalAlign=middle;resizable=0;points=[];textShadow=1;" vertex="1" connectable="0" parent="CYchLR7dStGbC8uaJ82P-13">
          <mxGeometry x="0.324" relative="1" as="geometry">
            <mxPoint x="23" as="offset" />
          </mxGeometry>
        </mxCell>
        <mxCell id="CYchLR7dStGbC8uaJ82P-15" style="edgeStyle=orthogonalEdgeStyle;rounded=1;orthogonalLoop=1;jettySize=auto;html=1;curved=0;textShadow=1;strokeColor=#006666;" edge="1" parent="1" source="CYchLR7dStGbC8uaJ82P-24">
          <mxGeometry relative="1" as="geometry">
            <mxPoint x="-1280" y="-450" as="targetPoint" />
            <Array as="points">
              <mxPoint x="-1630" y="-480" />
              <mxPoint x="-1630" y="-450" />
            </Array>
          </mxGeometry>
        </mxCell>
        <mxCell id="CYchLR7dStGbC8uaJ82P-16" value="&lt;b&gt;SEPA&lt;/b&gt;" style="edgeLabel;html=1;align=center;verticalAlign=middle;resizable=0;points=[];textShadow=1;" vertex="1" connectable="0" parent="CYchLR7dStGbC8uaJ82P-15">
          <mxGeometry x="0.3254" y="-2" relative="1" as="geometry">
            <mxPoint x="43" y="-2" as="offset" />
          </mxGeometry>
        </mxCell>
        <mxCell id="CYchLR7dStGbC8uaJ82P-17" style="edgeStyle=orthogonalEdgeStyle;rounded=1;orthogonalLoop=1;jettySize=auto;html=1;curved=0;textShadow=1;strokeColor=#006666;exitX=0.894;exitY=0.961;exitDx=0;exitDy=0;exitPerimeter=0;" edge="1" parent="1" source="CYchLR7dStGbC8uaJ82P-24" target="CYchLR7dStGbC8uaJ82P-30">
          <mxGeometry relative="1" as="geometry">
            <mxPoint x="-1280" y="-420" as="targetPoint" />
            <Array as="points">
              <mxPoint x="-1959" y="-420" />
            </Array>
          </mxGeometry>
        </mxCell>
        <mxCell id="CYchLR7dStGbC8uaJ82P-18" value="&lt;b&gt;BACS CREDIT&lt;/b&gt;" style="edgeLabel;html=1;align=center;verticalAlign=middle;resizable=0;points=[];textShadow=1;" vertex="1" connectable="0" parent="CYchLR7dStGbC8uaJ82P-17">
          <mxGeometry x="0.3419" y="1" relative="1" as="geometry">
            <mxPoint x="42" y="1" as="offset" />
          </mxGeometry>
        </mxCell>
        <mxCell id="CYchLR7dStGbC8uaJ82P-19" style="edgeStyle=orthogonalEdgeStyle;rounded=1;orthogonalLoop=1;jettySize=auto;html=1;curved=0;textShadow=1;entryX=0.5;entryY=1;entryDx=0;entryDy=0;strokeColor=#006666;exitX=0.796;exitY=0.985;exitDx=0;exitDy=0;exitPerimeter=0;" edge="1" parent="1" source="CYchLR7dStGbC8uaJ82P-24" target="CYchLR7dStGbC8uaJ82P-30">
          <mxGeometry relative="1" as="geometry">
            <mxPoint x="-1280" y="-370" as="targetPoint" />
            <Array as="points">
              <mxPoint x="-1977" y="-390" />
              <mxPoint x="-1245" y="-390" />
            </Array>
          </mxGeometry>
        </mxCell>
        <mxCell id="CYchLR7dStGbC8uaJ82P-20" value="&lt;b&gt;BACS DIRECT DEBIT&lt;/b&gt;" style="edgeLabel;html=1;align=center;verticalAlign=middle;resizable=0;points=[];textShadow=1;" vertex="1" connectable="0" parent="CYchLR7dStGbC8uaJ82P-19">
          <mxGeometry x="0.4395" y="2" relative="1" as="geometry">
            <mxPoint as="offset" />
          </mxGeometry>
        </mxCell>
        <mxCell id="CYchLR7dStGbC8uaJ82P-21" style="edgeStyle=orthogonalEdgeStyle;rounded=1;orthogonalLoop=1;jettySize=auto;html=1;exitX=0.653;exitY=1.008;exitDx=0;exitDy=0;exitPerimeter=0;entryX=0.653;entryY=0.936;entryDx=0;entryDy=0;entryPerimeter=0;strokeColor=#006666;align=center;verticalAlign=middle;fontFamily=Helvetica;fontSize=11;fontColor=default;labelBackgroundColor=default;endArrow=classic;curved=0;textShadow=1;" edge="1" parent="1" source="CYchLR7dStGbC8uaJ82P-24" target="CYchLR7dStGbC8uaJ82P-30">
          <mxGeometry relative="1" as="geometry">
            <mxPoint x="-1780" y="-9.166666666666666" as="targetPoint" />
            <Array as="points">
              <mxPoint x="-2002" y="-360" />
              <mxPoint x="-1236" y="-360" />
            </Array>
          </mxGeometry>
        </mxCell>
        <mxCell id="CYchLR7dStGbC8uaJ82P-22" value="&lt;span style=&quot;background-color: rgb(204, 255, 255);&quot;&gt;FUNDS TRANSFER FILE&lt;/span&gt;" style="edgeLabel;html=1;align=center;verticalAlign=middle;resizable=0;points=[];fontFamily=Helvetica;fontSize=11;fontColor=default;labelBackgroundColor=default;fillColor=none;gradientColor=none;textShadow=1;" vertex="1" connectable="0" parent="CYchLR7dStGbC8uaJ82P-21">
          <mxGeometry x="-0.1667" relative="1" as="geometry">
            <mxPoint x="22" as="offset" />
          </mxGeometry>
        </mxCell>
        <mxCell id="CYchLR7dStGbC8uaJ82P-23" value="&lt;span style=&quot;color: rgb(74, 74, 74); font-family: Roboto, Arial, Helvetica, sans-serif; font-size: 12px; text-align: start; white-space: pre-wrap; background-color: rgb(215, 234, 252);&quot;&gt;&lt;b&gt;MT101&lt;/b&gt;&lt;/span&gt;" style="edgeLabel;html=1;align=center;verticalAlign=middle;resizable=0;points=[];textShadow=1;" vertex="1" connectable="0" parent="CYchLR7dStGbC8uaJ82P-21">
          <mxGeometry x="0.3666" y="-2" relative="1" as="geometry">
            <mxPoint as="offset" />
          </mxGeometry>
        </mxCell>
        <mxCell id="CYchLR7dStGbC8uaJ82P-73" style="edgeStyle=orthogonalEdgeStyle;rounded=1;orthogonalLoop=1;jettySize=auto;html=1;curved=0;textShadow=1;" edge="1" parent="1" source="CYchLR7dStGbC8uaJ82P-24" target="CYchLR7dStGbC8uaJ82P-69">
          <mxGeometry relative="1" as="geometry">
            <Array as="points">
              <mxPoint x="-2110" y="-415" />
            </Array>
          </mxGeometry>
        </mxCell>
        <mxCell id="CYchLR7dStGbC8uaJ82P-78" value="&lt;b style=&quot;background-color: rgb(204, 255, 204);&quot;&gt;XML OR API&lt;/b&gt;" style="edgeLabel;html=1;align=center;verticalAlign=middle;resizable=0;points=[];textShadow=1;" vertex="1" connectable="0" parent="CYchLR7dStGbC8uaJ82P-73">
          <mxGeometry x="-0.0975" y="4" relative="1" as="geometry">
            <mxPoint as="offset" />
          </mxGeometry>
        </mxCell>
        <mxCell id="CYchLR7dStGbC8uaJ82P-85" style="edgeStyle=orthogonalEdgeStyle;rounded=0;orthogonalLoop=1;jettySize=auto;html=1;textShadow=1;" edge="1" parent="1" source="CYchLR7dStGbC8uaJ82P-24" target="CYchLR7dStGbC8uaJ82P-84">
          <mxGeometry relative="1" as="geometry">
            <Array as="points">
              <mxPoint x="-2150" y="-474" />
              <mxPoint x="-2150" y="-474" />
            </Array>
          </mxGeometry>
        </mxCell>
        <mxCell id="CYchLR7dStGbC8uaJ82P-100" style="edgeStyle=orthogonalEdgeStyle;rounded=1;orthogonalLoop=1;jettySize=auto;html=1;curved=0;textShadow=1;" edge="1" parent="1" source="CYchLR7dStGbC8uaJ82P-24" target="CYchLR7dStGbC8uaJ82P-99">
          <mxGeometry relative="1" as="geometry">
            <Array as="points">
              <mxPoint x="-2050" y="-214" />
            </Array>
          </mxGeometry>
        </mxCell>
        <mxCell id="CYchLR7dStGbC8uaJ82P-101" value="&lt;font style=&quot;font-size: 12px;&quot;&gt;GL to External&lt;/font&gt;" style="edgeLabel;html=1;align=center;verticalAlign=middle;resizable=0;points=[];textShadow=1;" vertex="1" connectable="0" parent="CYchLR7dStGbC8uaJ82P-100">
          <mxGeometry x="0.4432" y="1" relative="1" as="geometry">
            <mxPoint as="offset" />
          </mxGeometry>
        </mxCell>
        <mxCell id="CYchLR7dStGbC8uaJ82P-24" value="&lt;div&gt;&lt;font color=&quot;#ffffff&quot;&gt;&lt;br&gt;&lt;/font&gt;&lt;/div&gt;&lt;div&gt;&lt;font color=&quot;#ffffff&quot;&gt;&lt;br&gt;&lt;/font&gt;&lt;/div&gt;&lt;div&gt;&lt;font color=&quot;#ffffff&quot;&gt;&lt;span style=&quot;background-color: initial;&quot;&gt;HCM, EXPENSES,&lt;/span&gt;&lt;/font&gt;&lt;/div&gt;&lt;div&gt;&lt;font color=&quot;#ffffff&quot;&gt;&lt;span style=&quot;background-color: initial;&quot;&gt;FINANCE&lt;/span&gt;&lt;/font&gt;&lt;/div&gt;" style="shape=cylinder3;whiteSpace=wrap;html=1;boundedLbl=1;backgroundOutline=1;size=15;fillColor=#FFB366;strokeColor=#FFFFFF;shadow=1;textShadow=1;" vertex="1" parent="1">
          <mxGeometry x="-2120" y="-590" width="180" height="140" as="geometry" />
        </mxCell>
        <mxCell id="CYchLR7dStGbC8uaJ82P-25" value="" style="shape=image;verticalLabelPosition=bottom;labelBackgroundColor=default;verticalAlign=top;aspect=fixed;imageAspect=0;image=data:image/png,iVBORw0KGgoAAAANSUhEUgAAANMAAABVCAYAAADT7tEcAAAAAXNSR0IArs4c6QAAAARnQU1BAACxjwv8YQUAAAAJcEhZcwAAFxEAABcRAcom8z8AACAVSURBVHhe7V0HdFzVmb4jWbbBGEJJYnYTSNndAAmQShpZSCPZQLLZTZxCc2Jr3psZNTdCnKbkUGzJFnLBYGOCg40tvfdmVFwxgdiwCyEcWkJJII26xoAdSZaLbEuz3/e/+55Go6myjGXzvnPumdHc/t//u/9/y3tSAUY2Xq5Vp+ycqy7MFfYgdM1T5ydr1VidLUCANyf6VqhxW+eqcR2z1Xt21qub9zaqFV31buisV08lb1TJnGGxSvYtUMmuueoBL1/vfLViZ52ajTJPZNl9CLq6AAGOLnTXqQ/33ai+DMvy830L1FYQYSuItF3IcVN/6AVJkCZv6J6H9AtT8t7sE+wVxG/d2yDlV7DOjnr1Xt2MAAGOTCSXqlNgaebsvUHdBuvRKRYFBNjXqJL7EfjZnYEoQw0kWGrZQjbUibi/7p+vlnTWqauSywPXMMARgleuU29PLlMXwhLduH+hejm5yLUcINQg5T/UwSMqiCSWS4i2QD3fVad+gr8vxPrsWN3sAAFGFuBizQJpHqPi0l2jEtNapCt5MWFPg0sCht34nilNoWEX2nIAbWLbSPADC9TdXfOUoZsfIMDhRXe9mnBgkZoE4vxJ3CoEKm4+940ko3Iz9MBqeeue9CDl1KvXkWcHrVumNHTlSDqvvLx160/m6wFJO+eqp/tuUpf88So1XncrQIA3DslaVYJ10A/33KD+QKXkbE9FTlfc1EACcZOAhKOFIAH4iXK2QaGvxeeP00PHHPWdXXPVx7bPUZ/C+ut7u+cNTgOLuBChh9aLZYrlQR35NjOQR6ydpEcf9s1Xm/FbRHcxQIBDD8zsk3oXqie5HiI5MimqF0ggKrhYEKSHsj4JAj2OdUvjjtnq3L6F6tyOG9R7dNFDBso9q6dBncsyO+uUdaARddSrP0u9sHpisXKQndaKO4vcvEB4fOds9TlddIAAww+sL87ouxEWZK7qpeJlU04osWw4eBYCf++FKzcH+WYlbVWqizvk4JkT2nMtrM+NXnsYaI3QlsHtRoDl83YAd8DS/RiTxVt1cQECHDzg0o3qu1mdh7XLX5PLsisjg8zwsAZ7G9RepP8fWJ7P4PMcXdRhA11FWKevod1/EEvpEiZjYN9kfXYr/mYfGtWZupgAAYaO5FJVBsti9cJFowuUSfkYfEuEdL2L1WqQ6mJdxIgD114HFqkNJJS3dsvUJwZv9w+kmqOzBwhQPHZco07vrldNtDTZtqXp6jEei/fdIN3dexrVhTr7iMaTtWp032J1EazQ70GmPq6rMvWPQawUiAfrVvf6teqfdREBAhSGjjplQMn2cVbOtjbyZm0o5eo9N6iLkC3k5j5ywDUcrM7lsFTruQ7kjmCmvnIy4WZLT6Pa0TFHfUlnDxAgN7pApH2LVK8cuqYplb+egDVC3DN0mXS2Ixr2RFUKIv0MfdxBK5RpAuFvvQvlFsXOHXXqEp01QIDMIJFobXiYmb7JwL97QTAs5PfD5bmj6yjc6UIfz8JksYVWiJNGav9FBvWuNd7bqHaBXIGFCpAZUI7yfQtVbyZXR3bpeMeuQe3orFNf0VmOSrzQoI4BqSJw7fq4oZIuC04qB0Co/QtV1/bZI3ejJcBhAmZcU2bjDBaJ6wW5UbBQPfSPOvVZneWoB9ZSl4Iwz2c6U/MsFNaKu4M1VAAfUJTJPQtUX7pFIqnkTAbKBMW6bsccdYLO8qZB13XqjN3z1G3eLYp0+dBCwZp3dgYWKoBnkTKtkTwiwTJdrZO/aYEJZwk3XQYRyrNQDWrv9qPc/Q2QA7RI+7JZJO7YgUhQlh/r5G92hCCLX2YiFINs2ixQXUf7ejJABtAt4TZvJovEXay+wCJlxO5GtTirhYI88X3v3jr1rzp5gKMdyYmqFIP+2/SdqsAiFQbI6pZMayjZ8XRlukwnDXA0A+uj4/c0qjtkhypFERhIpD4eWDaoWTp5gAxIwuWD9V6ciVD8uxeyxeccbrHrLAGORnTUq6rkLYO3ekksbkR0zVM/0kkD5EFnvVqW0bpz4waT0vbr1Sd10gBHG7oa1Zkg0YuDNhzg7yeXiCI066QBCsDWGWoc1pXynr/0dSfvLe5qUPfvvE69XScPcLQAVmcMSPMgF8+pg87AA9me+erVzgb1CZ08QIGATL8B2e3jPcZ0QtEDwOctOmmAowFyM3quqty/QB1I9/G5cwe35JUdc9T5OnmAIgHX+dLeBaqLN0VSZcs1KLyAzs656j900gBHOjoXqZM767LMnstUsnOOmq6TBhgiYKF+pS2RHyhrrqm66tRzOlmAIx0g0kKegaRvOuwDuXY3qk3dN6hTddIAQ8SeevVeWKLfc8JKlTE9gQM3qh5YrwqdNMCRCr6xZ898tT19kOmC0C15eY46TScNcJDYWac+K++WSJm0aJ34yD/c6Ue3zlVv00kDHGng+xs669VmDjB37FLJxN8wW87n49s6eYCDRN+tajzWn+08f0p1p2W3FL+BbHU6aYAjDbvmqq9yG5yvr0ol0v4F4vK92tGg/kUnDTBM2DlbfQFeQE/6g4UcB5Cqo2P2wb8jMMBhANZK9/IMJHVQeaDI+3hwRb6okwUYZkDuNek3TOSqEb2BOjVXJwtwpKBrjjp/d6PaLsRJGVRuRGBA730jXwb5ZkP3tepUrEef4QZPquwPQPaYzB7ZOT84yD1iwPeAd85T1+hbDf5gypWhxWp/d2Nw7nGosbNeTe+7WfWmWidZO92skljHXsn7fTppgJGMzkb1vl3zVBd37LyBZJCdprnqzuB/wR56wM07DkR6hv/cLXUMxFrVq7+9GZ9aPiKxvUGdLRsPKSfyPO/YO1/1ds5RM3Wyw4va2hJlPFzmh4n2yHM7a5Mlo6PWdFW1dkmoev2ScZXOd6XdBQIWKMGHBlOtkzw/Vq92dtSqk3SyACMZO+rVOUkMYiqZ+GpjDO7+voYRMohh5yJVteE5ZdjPqcq1z4VMp/2sWntkbdMbViQ0/e6kmnpXUk37dTJUua5XheNf0LF5satBnccbEKnjoHf19vCfCuhkAUYyOOt1zlVtXDNxMCXcJGRaNGI2HsLxb6hp9yRVRXtS1WxKlprOC+f+aO3IevWwaf2YJFKm44aaO5Oq3PovHZsXfXVqPIjTnj4OWMfOh6sdnO8dKeAt8T2NasWBBerB3kXqwT0NI2xL1oh/HZbJVdKKNcnSiP3sh65q+ycdOzJgWFerqZv6yVS1PqnC1td0bEEgabB2vZ3jcADjsOsGNS+ZDDYfAgwn3iRkChDg0CMgU4AAw4SATAECDBMCMgUIMEwIyBQgwDAhIFOAAMOEgExHMWo3j1Ixe4KKrZugZm6eoKYsK+6mAPNJQBkzfzdB1daO0jF5cfLkW8dLnQyTlr9F/1wcjKVlUq/0ISXMRJumWAd/64Fls30ZcKKx9ASJ8+tE2gvy9P9gyHT5irf58p6yemg3sKust/rjJUF/T8Vwk2lymzvOfp263intxffhkqXH+mVR3kPBNxuOcXVm3YRjUc7pk5YP053NWOsHVSTRrSLxbhVt7Vaxtr8pw/mojs2NsD0DCtENgbuhci3KaWlFeXkfU56AQS2JtTyqYu2ok/W2P1twvcDba5reVRJbcwXa3aYqUK/XBi9EW7pR3t9U9Z3fV5euKv4KS8w+Thn2Lapyndsv05mtqhaM0bFqVHj1x0sr2p4QmXl1Sv8TbTn7P1QyhZsuwti8ljJWu1TEmaxj84Pkq9loKtPehjHqb7OJsvhZs/EqZa5y3xVuNP1wWMgUsT6nqjZegTofkXH260RgPwy7E2NXM6rc+YzOkRvlLf8WirU/4JfFsTGabynqfqMQuW2LqzPx7pLKNd1l0eYrdexBwmw5D41KooIkFDCpZmxOhkznNh2bHdOsYyCM10XQ0VY3xBB4nyvc/DGdKjNoDU2nXa6p6LyhaXcnQxHrWp0iN6JNnyqpbH82xLoq17rt9trgB/zGPvFaTOW6h6GAP9S5C0O45b0YNCg8AuVjOj3yO/odiiSWo/ztbt9T6mZ9TGtY2d9oOhQyTWn+CvrZKWWzvmrkj7b0oZ7LdYqcGAt5QXEeU9N/445RJnlNvwefib+LsplWWMbxYMhkWN9Ge3tE/pRhxjFCQD2hWBsnvxt0zuzgmETbnnX1huMLvQHpx8Scwh6LJ+kMZ4mCrrntQZh5H8bLLk43ssJo+aQMjic4KFBJLP738TXW+3SKjBgVtWeFKtb2QkmTbkgguAqiws40lUxmvzrCi50miEghs85K5DHjTwpBcwFllpj2lVDmf8gAMy/rZfsp4NQgBEC7TNtVhmr8Vm79QpeUH+XWuyHk/b7QzfhOKNkX0cc7RCnZT4mjUuCTMpDZPL5AJotsKJZM5c1fQh27ZdIw0BfWW7l2J2bkr+oUOXGMaZ1XUgGLJnUiP9vJNldvHCwvfhrO7xCWS32eThRJplKj+Voofa+ML9ucqT6ZiPA7y/cmPcP+ZV4rU25NF5Jy3JkX5YZM60EdmxvGr09AHZ1+vfysXPcqxmyY/h1ORcvJaFibqpLZ12+g3G7OBdNaqKa6lyFDUDoo+R5RXg626WzVqbLDsJ7rJ9NalOE8rWOyY8rqL4J4+6QODhIHgcphWFfBpYDLlxJoXdkPxlOJqPAcxHKsBwpBKpnYRhk81oXfWI4rK+222LtCbNNVmOXCzk91CZlROJlCykh8Ge4ILFIKkWKte1BHYQ85VqDcCMiROllGWg6EDGs7fq8YIC/DvkHkSSWnRWZ9Xp5iyGTal4mye0SSSc15HfoyJbU+jPcv4AF1a31xx4nW0LAW65IyYyIm4rC1S9rKfEKI9dsKIkQ0/h6OlU8mTrCGdZ+OHSYY8Z/03xJGpzh4YbgGWXD8NOskWIc1ImSZwex7Q0bzXBk0CBGD9fJpP1yXfZ1CN4huknQK9SHPmIg1X8dmBtsTbXnFtWIkh8wq+1S5/T2dYhBC0dbZWAv0EwoDi9+eE1cmH9LJJANHC5TgIwlbSqLxb7v+tz3hxGjTO8vY/khipSy2c6FQMk1cekLItGFRIGOZOKCcFWs71ORVX9cp8sO0E+LSeO2XWdzZgnZmXtNFWqKQEV2u/jwMhZIp0vwBktUnEolS0b4dZVyoUwxEVeIdsIJ3Sfmsh/mira+KO5cFpxpLjy0xrM39lhP10FPg+j0fTHsl6uqTfNSJ2JpekLxRxw4PxsXsGSVVa/tcpWOnIATDXp3NXSmNNH8pxFmfaTnzhO1NYh04Y6MMun+jYk72/yphWCt8n5wzPmcZI36Gjs0Mw1rvKwbbyXpzEMlH2FqGtBAa8lHwaOOYqLPiyymbCRmRkUwyo3VgdjxOpyoehZLJSFzvKgz6yjbIhGOX69i8KINiw/3ZKgoqbaecW/tKI02X6CSZYdi/7VdUHQolk2H/yicGZVXRvksmzhw4sdo+rbSi5QW4hW4+TuqRONZPOZYJ9JoqN+gxRXCt229z7nDy4caIs1G8FWmfHtfIiuF9p99ZMfs4zIJ/dGd9No4zi7NDTGomUECVFJpWasNei4b+iM/nSP6pVPr4jTr1YBjWIn+3KCKzfY+KNp2pYwdhfFXTp0qjide1Muv22U/DKhSm1NGWe3wFhhAxs/Womjxb8elk4kxLMnPSKOKp00EohEyGVedOTK5rWQLlHh1pLu5F+Fy3pm4iUGZh6wFoVe62yw6cHlsvbyFkogsVbd3mk7eC3k3zOh2bE6GIdZs7UULGlHesrQN5P6yjB4Nra3pGnrvNybVqbbIskviATjEYfI6seuOufoPBCdx+Qo4Khh1h+1F/RnLJ9AIGffDsDWuFNdIvZTbgYFPBY87nRcmm6s5BkKVR52HOOjqXjwmx+OmlEecRn7h0DQ3r1ox1eTCdb/UrBpX6HuaJ6Nj8MKwWf0aiMDFDj4o0T9WxmZFOJvY31v443M2sLkhByECmc6dZ/Q8HRpzrxZcXItGSboKSWJvPq1p5vE5RGMoTVQPIJHIuYNPiKripJibH1DV0IWQyYE28pQJlTHmFV39cx+ZGzD4f6beJLnleh7E65zHJ2EjT1aGKdnhT7oTD+kDKRTp6MEwnZYdST4wRq/CjhaIQbv6G2xk0Tpi+fj8aeZ2O7UfVs2OgZJ3iw3tkql5zmoquOhGK94TMSGhwCGuV0ormL+lcPkCkS0L+Ah6d4pbsFCv7op2Hsob9k373AXVWru+Ashf85Cfa+QH0ZadPDHftgFk6B9LJxDYb1h06dujIQKaPz+LhJSwGz7I8i0RLKN9bHpLD2iLAQ8hS01rly0z6zDqtb+okuRFuqlTTUohYEJnglvrehiaT0fzvOjY/wtZTojsy2bVzMp6oYzLiHdOWnYTx2C16yDqRNxSJP//WTOthunKmjbWyt2mBMa1a/49Cd0SLxxS4WR5BWKHL4sHnTXT9DOclNy1cpojTPSZmuW9INazf++6fDKQ1+IWPRuvnfWUCEUOV7dtHR5qy705NWj4BirVXSMs8MsPaG3RsYZj8v+ORp8Mvg/Ub1j06NjPSyUTLZjiOjh06MpCpwbKOGQ3lkXUo3V7G0WWOtT2kzF8V/Uj7+Ij1Pkxa/WMp5XECs76lk+TGEG5AYHJaOMDtkrW0dYGOzg/D+ZMQkPlpZUz7yZzHK1xTRZzFvseBUII2j2bb0xFOnIqx7B04Mdp36thDAJ5+m/FXUpV2lGklPtGQdvZjOteo6vX7RGCwPiGzud7fqKA7JZbJnZkgkPtBhv6rGvJmnrghgmYdcCVC4TxnBFxUGg5P/P124e/iBGGsOQXC6z9fEGW279axmfGGkAnucMR+/J1TnfeHovHHfWVyJ6r7lbHqFJ2rOBirzpAx8MjEw81I/PVR+Q7TPRRJpgk1TWeOjTmv+fLFMgF/P316Teu7dJL8SCMTZP/X3GQCwtbZWJq83j8BcYziS9LPK0dHrIWhyjV9IhMGeUGMdZOOPkQw7Vn9QownR1e29p5U2TzwrTSGc7trteiicdHY/AMdw8Xr+4RkHETX/L424K4eNzoMe5tvbl2//CEdmxkumeCiHYVkQtmYcF4oMe2/+BOM5yKVr/qIzlE8OA5SliYTyFBiWL+eWOhbkIq1TLGW82Us2Xamp1WNFHgrwcNgMj2bl0yE6SzzzjulfuoWt+hTwa10Eo1pqAP0dKgThxSG8ws1A2sYEoUVU4GiiYt1rHtfLRJPiEKjUaFIYscY7v54YCeEILpT0ZZtqnzFu3WsUjM2jUO5r7odxkAz5Fv7HM1kghxApGfKInZCyOQpIyzWKKO5RecoHulkoszCdquOzY9iyWTGPy0bSj6ZZLIdvN7OhSGSqcSM/wzt2y91C5kwiYctX2fp8sLq/8XfZaTuGdafVTTHOeiwIAwrVLn2/+gWeELEQrZf2SlQClbiqBDcak0BbwGb9n2+UGQBbS3XsRAYNxOcrQPIZKzJ/X+SjmYyQU5Y2zw1cY59Asqu82XLdvIyZ7SINUcqhExULk0mktO0Hv3grAK3gYsk0/ga5+NlFZCTRyb0ryzqOOfMWDFOJ8mPoVom977dS35e7kiHrT/oWBA9YfqWi4FeVdi6QsceYvB6RbUeVLAZbshDUMZjJW5y0+dFmRnH9U7EuUt+T0XYjvlbkBwQ3ur14M4iPSJ0Kikvypp5/OrwylOlLE+paa7D9hodWxhGNJnsZ2O1sPjoZyja0iPK4N8eWNOByaT4/9phxM8IcUL0lBukKqts6zmpqin3FTEPRZKJpCmLYL3sTQaorzTWsv+YQrfGiaGSiSi3wiI3sUxt9JheOanKOkvyU+dSN0aqNvC2fe6D62GD6TzmC4UWhCf+PAOamCyFJWpwG50AyeJ94yoSgwZ6VLR5VkjOG6AQTBtre0AUk6AyekSjX21Y03OedBOXrTwegt0wQNCx9qfQlrN0ivy4HO7lgN08EgMWNBfeQDK5h7aQQyTxNcjMtcIklMivvQNpM1/HyYLjpyw7qSRsbXI3g1APg6tQhe3mhZtnFOXmEWbiGj8PlVbWgE2Ftzts/3HIZOIBb6qbKdv68VnqAnk6oad/DLmL57Qf1KF7UeB5UyThXi0Sdyz+mpwST9o8FgTZI7+5V1PQsMEu2thY/PRQtPVJLRD3NoThnhmUGs2WO6j4nfepeNBbCHg+IqYa+Vim5LUNHZsfEedaKJbrV8tuztq+kGnlfszkDSeThtH07ZBYf7aVhFqXLInE/3G8d/xQKMJ0b/TEJe1HmYWcq/DhRtO6xp/NGQoiU3yhuyGFNlPOHP9ctxhSwQNpM2VdUyyZJL+zzr2Bg/rR3lFYh46tsD45YAyrNvSCtMXdJDkolCfeIQPp+dvVG0Es3QDDcnfi5IaE/TjSZD5MNOz7+91BfJYnPnH69PgZZZWtO2TWZahav1VF89xM92BYX4aA+UCZLpOD69w2YNs9F0xYNhE08nIi4Ge+mwyHiUwn1Cx/S4lhPSmzKNNQOWRGtYt7M225c/WAS66uguW/DAq5hExnt7/drPPmJxOsXtU692DcIxMfMiwEUR63bBp4164YMhFRyLVyfZc3XugDx2sv5OdebO33sjKvG/n8Vc3dJvL8t/7l4DEGSlTCSj0lcmeoZeicgU7uFYWmYoatqM4yCGOi9q/kkQSSUj6dVejUlaKQMnNQmeCGFAr3+ad7fQVjG7hr8/2V+V09eVH+upddF4+KuZE7aFtSn5rNiMNlmQhOaLH2R7TsXOWUPC0/0yny4oRK63Mlsbb++4xQJpD0xVO99W82RO2PuB6JnnQYCiETwTNDuqa6b2j36zJ2eYC19xpXN3R9zFssmYAQJ/jUIwZv7BiETPZz/vrfAzdJDCeCNPXwfuagjLmQwffzPltXEORgFbOaN5Ozk5HEIpjHle46BwrJK0CmM03nGITR3E0yHPfEmZ3gbgt3VTzlEKtl5z5fSkOJac0UYnsConWsaH8IpMx6Q+A4Y9UpEM4Lsl3PdtM15cNg0fhndZLsOJxkIqbcfmaIdXuTAL+LwsEFKxDo+8O+ksoEREJBUbKBm0Gx9idcxUMeLxRIplKz+Sv9j7ywf2t7Q7HWxDtyKWbYqoYcYJV0Hsk3NDIdE7O1jqWU5QXqXHnzZYPW6Lz5w3t7nPCn3nWNXCgOW5WqWLc6G0oMp0IeCZdGyGAsxAx/k3xnYyvanpTt12wQV9He55OJN9L50BjzclAjLVi/2N/RqQuHYV3vDhZnTVoZuj/OE3Jj+XLMMKkhbF0cql6/xScDAycBw7Z0ablxuMk0sXZ0yGy+UdY9Xn/RlhAUe2yMSlEATOe7IcrfszK05rHWbWVR6+cn8C5lqrzMtrNQvvtIOMkj/UadzFeoZeKzXGYi7rv4CLyHGYrYbXJ3M6W+cVgihHj3k+1j+e4BvhuGSCa4tu9XsZZ9fn/9AHJVrtsvTy2nYlLrWzCmFe7/ynKWjKuwLsUEtF4IZ8ZrhsU6va3aOac0mnhehO8KZikqu1W+y5UNK/c5z0S7NMRn7WVQxM14EaFRBMdBClsH1BW3n6xTF4doYp4MOH16WhuZiZztaN/WAYG7OP6sDGGKuxp/BO15py4pNw43mQQY1EjL4gGKxiOJWNsjqgaKkAe18DJQ/haXkJCBWOe2ZMhd6L+SJi+uJzi23JzZGOKDiV7fCyUTcGx45anQnef6Nz9QrztGA+sznFfld6nT+RPq+02/RRsimXiOaWLSn643qzyZye2HuI26Brr2U+7kZdmr9fnnfLRhJfo5e6JtlyLfNYNcwiGDW8dUIApU3DQb6w58d8m1UafKDq6p5FEJdIpC8g6CQa4y095xMh+pHhpCKtw8W3a82D4hKMrmZ2oQRUC9HCz68RXtD6rJqwuvkxsUJKy3YSFkhG9/sBhEJufPZ/8AljwLzqqtHV0asZ4RhfYURIiN8SnkWRxa7Yp2dy0hZSA/5ZIuL7rwiB8Via+UfKb9oIw1x4/E4C5vgTiOj1REWy3Jx3ppKdLrY0B9oVj7XrlFY9inSfu894gY1ktFk4kotz+I/r4g5UtfEWru7IMOL9EpBoJuXtiZXBLDsqX8jg/Cit6MJUUN9PdsnWIYYNo3qxlb3INXukcMPD9yO/whnSo7ypv+E0pzQPJxoFgOP69+AAPm/HRiMa9nyoCxVYmrS6rWb4aQdshWOctODdxK56BUrLlPVa75urpsQXHPA/Gmcdh6Xs3c7CrTzC08pM7+vEyh4K7RD+532zjzPt66f+kj03PfEys1HchyXY8vS4YfPQRFyXPw7OHSm04sibZOgSx+J0Rmf3w56e9VGx7DuFbzsXDJw6dm0Wc1A7Ll2deU5k/L74Vi4sRSTEZLSyrXPMqHG2U8Uut0n316Wk2+/aOiC1w2RFtf49uxRO9gHYdEJsKwfuc+vQAiCani27Kurel+ms7MMTE+77Tx4rKYMxl9ryr4wdOCII9aoFAzMU2e2mTgd6O5KusTuOmga1C9oT8/Q/UmlJHnEfViwKd+WWZqHQyxtmkYoIN7+IsHwyxb9/u46UO8xZ0Kvt+gcp3bRn7qM7i84OLel6Xl5g1bl+rYwsDNpUg8qmKpY6o/uZZJxTexXjCap4IETFPUoXEqLqldeuyYaHyKjEdqnRLSFDza/DGpj2kP5gWivDzt7epxqWLYL/L/9OrYjDi20roY7uBPxvFB1wABAig1vqLl5JDJq0ncooc7K6Syr8x70yZAgAADMcqwpodquCblZgbXzHD3hnphOECANzOwBm3Vm2TuRk00YSm+0z5AgABFgM/jeTcwGKbdzaOH/K9dDhAgQAqiLT/zj3L0xkMomnh2LLfcAwQIUAD4BqTqjQtlo0GIxHPNhGy/l0WsSTpVgAABsmLS8rEhvuU32topZ1jcbPBuxMg78VoWy/Z+gAAB8oC30XmPjofA4ta1yYZDSaztRRWJ1+pUAQIEKAh86yt37sTFa9taVtH6G3liIUCAAEVCXqbCWzpOPd98dUG+f4EaIECAkQSl/h8mmq15k1yedAAAAABJRU5ErkJggg==;textShadow=1;" vertex="1" parent="1">
          <mxGeometry x="-2070.5" y="-550" width="80.5" height="32.43" as="geometry" />
        </mxCell>
        <mxCell id="CYchLR7dStGbC8uaJ82P-30" value="" style="shape=image;html=1;verticalAlign=top;verticalLabelPosition=bottom;labelBackgroundColor=#ffffff;imageAspect=0;aspect=fixed;image=https://cdn2.iconfinder.com/data/icons/whcompare-servers-web-hosting/50/sftp-128.png;textShadow=1;" vertex="1" parent="1">
          <mxGeometry x="-1275" y="-470" width="60" height="60" as="geometry" />
        </mxCell>
        <mxCell id="CYchLR7dStGbC8uaJ82P-31" value="&lt;span style=&quot;background-color: rgb(204, 255, 255);&quot;&gt;&amp;nbsp; &amp;nbsp; &amp;nbsp;PAYMENTS FILE&lt;/span&gt;" style="edgeLabel;html=1;align=center;verticalAlign=middle;resizable=0;points=[];textShadow=1;" vertex="1" connectable="0" parent="1">
          <mxGeometry x="-1719.9970588235292" y="-578.5" as="geometry">
            <mxPoint x="33" y="13" as="offset" />
          </mxGeometry>
        </mxCell>
        <mxCell id="CYchLR7dStGbC8uaJ82P-32" value="&lt;b&gt;FPS&lt;/b&gt;" style="edgeLabel;html=1;align=center;verticalAlign=middle;resizable=0;points=[];textShadow=1;" vertex="1" connectable="0" parent="1">
          <mxGeometry x="-1460.0047058823532" y="-517.57" as="geometry">
            <mxPoint x="-13" y="-42" as="offset" />
          </mxGeometry>
        </mxCell>
        <mxCell id="CYchLR7dStGbC8uaJ82P-33" value="&lt;span style=&quot;background-color: rgb(204, 255, 255);&quot;&gt;&amp;nbsp; &amp;nbsp; &amp;nbsp;PAYMENTS FILE&lt;/span&gt;" style="edgeLabel;html=1;align=center;verticalAlign=middle;resizable=0;points=[];textShadow=1;" vertex="1" connectable="0" parent="1">
          <mxGeometry x="-1689.9970588235292" y="-510" as="geometry" />
        </mxCell>
        <mxCell id="CYchLR7dStGbC8uaJ82P-34" value="&lt;span style=&quot;background-color: rgb(204, 255, 255);&quot;&gt;&amp;nbsp; &amp;nbsp; &amp;nbsp;PAYMENTS FILE&lt;/span&gt;" style="edgeLabel;html=1;align=center;verticalAlign=middle;resizable=0;points=[];textShadow=1;" vertex="1" connectable="0" parent="1">
          <mxGeometry x="-1689.9970588235292" y="-480" as="geometry" />
        </mxCell>
        <mxCell id="CYchLR7dStGbC8uaJ82P-35" value="&lt;span style=&quot;background-color: rgb(204, 255, 255);&quot;&gt;&amp;nbsp; &amp;nbsp; &amp;nbsp;PAYMENTS FILE&lt;/span&gt;" style="edgeLabel;html=1;align=center;verticalAlign=middle;resizable=0;points=[];textShadow=1;" vertex="1" connectable="0" parent="1">
          <mxGeometry x="-1689.9970588235292" y="-420" as="geometry" />
        </mxCell>
        <mxCell id="CYchLR7dStGbC8uaJ82P-36" value="&lt;span style=&quot;background-color: rgb(204, 255, 255);&quot;&gt;&amp;nbsp; &amp;nbsp; &amp;nbsp;PAYMENTS FILE&lt;/span&gt;" style="edgeLabel;html=1;align=center;verticalAlign=middle;resizable=0;points=[];textShadow=1;" vertex="1" connectable="0" parent="1">
          <mxGeometry x="-1689.9970588235292" y="-370" as="geometry">
            <mxPoint x="-4" y="-22" as="offset" />
          </mxGeometry>
        </mxCell>
        <mxCell id="CYchLR7dStGbC8uaJ82P-37" value="Financial Institution" style="shape=image;html=1;verticalAlign=top;verticalLabelPosition=bottom;labelBackgroundColor=#ffffff;imageAspect=0;aspect=fixed;image=https://cdn4.iconfinder.com/data/icons/48-bubbles/48/04.Bank-128.png;textShadow=1;" vertex="1" parent="1">
          <mxGeometry x="-1190.0000000000002" y="-740.3199999999999" width="99" height="99" as="geometry" />
        </mxCell>
        <mxCell id="CYchLR7dStGbC8uaJ82P-38" style="edgeStyle=orthogonalEdgeStyle;rounded=1;orthogonalLoop=1;jettySize=auto;html=1;entryX=0.546;entryY=0.006;entryDx=0;entryDy=0;entryPerimeter=0;strokeColor=none;curved=0;textShadow=1;" edge="1" parent="1" source="CYchLR7dStGbC8uaJ82P-37" target="CYchLR7dStGbC8uaJ82P-24">
          <mxGeometry relative="1" as="geometry" />
        </mxCell>
        <mxCell id="CYchLR7dStGbC8uaJ82P-39" value="" style="shape=image;verticalLabelPosition=bottom;labelBackgroundColor=default;verticalAlign=top;aspect=fixed;imageAspect=0;image=https://static.vecteezy.com/system/resources/thumbnails/020/975/570/small/visa-logo-visa-icon-transparent-free-png.png;textShadow=1;" vertex="1" parent="1">
          <mxGeometry x="-1590" y="-740.32" width="76" height="34.86" as="geometry" />
        </mxCell>
        <mxCell id="CYchLR7dStGbC8uaJ82P-40" value="" style="shape=image;verticalLabelPosition=bottom;labelBackgroundColor=default;verticalAlign=top;aspect=fixed;imageAspect=0;image=https://upload.wikimedia.org/wikipedia/commons/thumb/2/2a/Mastercard-logo.svg/1200px-Mastercard-logo.svg.png;textShadow=1;" vertex="1" parent="1">
          <mxGeometry x="-1690" y="-748.07" width="58.58" height="45.5" as="geometry" />
        </mxCell>
        <mxCell id="CYchLR7dStGbC8uaJ82P-41" value="OR" style="text;html=1;align=center;verticalAlign=middle;whiteSpace=wrap;rounded=0;fontStyle=1;textShadow=1;" vertex="1" parent="1">
          <mxGeometry x="-1640" y="-740.32" width="60" height="30" as="geometry" />
        </mxCell>
        <mxCell id="CYchLR7dStGbC8uaJ82P-42" value="" style="shape=image;verticalLabelPosition=bottom;labelBackgroundColor=default;verticalAlign=top;aspect=fixed;imageAspect=0;image=https://www.pngall.com/wp-content/uploads/5/American-Express-Logo-Download-Free-PNG.png;textShadow=1;" vertex="1" parent="1">
          <mxGeometry x="-1480" y="-755.3199999999999" width="108.76" height="60" as="geometry" />
        </mxCell>
        <mxCell id="CYchLR7dStGbC8uaJ82P-43" value="&lt;b&gt;PARTNER PAYMENT NETWORK&lt;/b&gt;" style="verticalLabelPosition=bottom;html=1;verticalAlign=top;align=center;strokeColor=none;fillColor=#00BEF2;shape=mxgraph.azure.cloud;textShadow=1;" vertex="1" parent="1">
          <mxGeometry x="-1605.02" y="-849.33" width="135.02" height="79.33" as="geometry" />
        </mxCell>
        <mxCell id="CYchLR7dStGbC8uaJ82P-44" value="OR" style="text;html=1;align=center;verticalAlign=middle;whiteSpace=wrap;rounded=0;fontStyle=1;textShadow=1;" vertex="1" parent="1">
          <mxGeometry x="-1530" y="-738.46" width="60" height="30" as="geometry" />
        </mxCell>
        <mxCell id="CYchLR7dStGbC8uaJ82P-45" value="" style="endArrow=classic;html=1;rounded=0;strokeColor=#003366;strokeWidth=2;textShadow=1;" edge="1" parent="1">
          <mxGeometry width="50" height="50" relative="1" as="geometry">
            <mxPoint x="-1210" y="-730" as="sourcePoint" />
            <mxPoint x="-1450" y="-790" as="targetPoint" />
          </mxGeometry>
        </mxCell>
        <mxCell id="CYchLR7dStGbC8uaJ82P-46" value="" style="endArrow=none;html=1;rounded=0;startArrow=classic;startFill=1;endFill=0;strokeColor=#003366;strokeWidth=2;textShadow=1;" edge="1" parent="1">
          <mxGeometry width="50" height="50" relative="1" as="geometry">
            <mxPoint x="-1210" y="-710" as="sourcePoint" />
            <mxPoint x="-1450" y="-770" as="targetPoint" />
          </mxGeometry>
        </mxCell>
        <mxCell id="CYchLR7dStGbC8uaJ82P-47" style="edgeStyle=orthogonalEdgeStyle;rounded=1;orthogonalLoop=1;jettySize=auto;html=1;entryX=0.631;entryY=-0.003;entryDx=0;entryDy=0;entryPerimeter=0;curved=0;strokeColor=#003366;textShadow=1;" edge="1" parent="1" source="CYchLR7dStGbC8uaJ82P-40" target="CYchLR7dStGbC8uaJ82P-24">
          <mxGeometry relative="1" as="geometry">
            <Array as="points">
              <mxPoint x="-1661" y="-690" />
              <mxPoint x="-2006" y="-690" />
            </Array>
          </mxGeometry>
        </mxCell>
        <mxCell id="CYchLR7dStGbC8uaJ82P-48" value="&lt;b&gt;CDF3 FORMAT&lt;/b&gt;" style="edgeLabel;html=1;align=center;verticalAlign=middle;resizable=0;points=[];textShadow=1;" vertex="1" connectable="0" parent="CYchLR7dStGbC8uaJ82P-47">
          <mxGeometry x="-0.2494" y="1" relative="1" as="geometry">
            <mxPoint as="offset" />
          </mxGeometry>
        </mxCell>
        <mxCell id="CYchLR7dStGbC8uaJ82P-49" style="edgeStyle=orthogonalEdgeStyle;rounded=1;orthogonalLoop=1;jettySize=auto;html=1;curved=0;strokeColor=#003366;textShadow=1;" edge="1" parent="1" source="CYchLR7dStGbC8uaJ82P-39">
          <mxGeometry relative="1" as="geometry">
            <mxPoint x="-1980" y="-590" as="targetPoint" />
            <Array as="points">
              <mxPoint x="-1552" y="-660" />
              <mxPoint x="-1979" y="-660" />
              <mxPoint x="-1979" y="-590" />
            </Array>
          </mxGeometry>
        </mxCell>
        <mxCell id="CYchLR7dStGbC8uaJ82P-50" value="&lt;b&gt;VCF4 FORMAT&lt;/b&gt;" style="edgeLabel;html=1;align=center;verticalAlign=middle;resizable=0;points=[];textShadow=1;" vertex="1" connectable="0" parent="CYchLR7dStGbC8uaJ82P-49">
          <mxGeometry x="0.1015" y="1" relative="1" as="geometry">
            <mxPoint x="-1" as="offset" />
          </mxGeometry>
        </mxCell>
        <mxCell id="CYchLR7dStGbC8uaJ82P-51" style="edgeStyle=orthogonalEdgeStyle;rounded=1;orthogonalLoop=1;jettySize=auto;html=1;entryX=0.938;entryY=0.09;entryDx=0;entryDy=0;entryPerimeter=0;curved=0;strokeColor=#003366;textShadow=1;" edge="1" parent="1" source="CYchLR7dStGbC8uaJ82P-42" target="CYchLR7dStGbC8uaJ82P-24">
          <mxGeometry relative="1" as="geometry">
            <Array as="points">
              <mxPoint x="-1426" y="-630" />
              <mxPoint x="-1951" y="-630" />
            </Array>
          </mxGeometry>
        </mxCell>
        <mxCell id="CYchLR7dStGbC8uaJ82P-52" value="&lt;b&gt;AMEX FORMAT&lt;/b&gt;" style="edgeLabel;html=1;align=center;verticalAlign=middle;resizable=0;points=[];textShadow=1;" vertex="1" connectable="0" parent="CYchLR7dStGbC8uaJ82P-51">
          <mxGeometry x="0.3883" y="-4" relative="1" as="geometry">
            <mxPoint as="offset" />
          </mxGeometry>
        </mxCell>
        <mxCell id="CYchLR7dStGbC8uaJ82P-53" value="Credit Card Transactions" style="text;html=1;align=center;verticalAlign=middle;whiteSpace=wrap;rounded=0;shadow=1;textShadow=1;" vertex="1" parent="1">
          <mxGeometry x="-1749.07" y="-620" width="226.05" height="10" as="geometry" />
        </mxCell>
        <mxCell id="CYchLR7dStGbC8uaJ82P-54" style="edgeStyle=orthogonalEdgeStyle;rounded=1;orthogonalLoop=1;jettySize=auto;html=1;entryX=0.421;entryY=1.002;entryDx=0;entryDy=0;entryPerimeter=0;strokeColor=default;align=center;verticalAlign=middle;fontFamily=Helvetica;fontSize=11;fontColor=default;labelBackgroundColor=default;endArrow=classic;curved=0;textShadow=1;" edge="1" parent="1" source="CYchLR7dStGbC8uaJ82P-60" target="CYchLR7dStGbC8uaJ82P-24">
          <mxGeometry relative="1" as="geometry">
            <Array as="points">
              <mxPoint x="-1140" y="-290" />
              <mxPoint x="-2044" y="-290" />
            </Array>
          </mxGeometry>
        </mxCell>
        <mxCell id="CYchLR7dStGbC8uaJ82P-55" value="&lt;span style=&quot;background-color: rgb(204, 255, 204);&quot;&gt;BANK STATEMENTS&lt;/span&gt;" style="edgeLabel;html=1;align=center;verticalAlign=middle;resizable=0;points=[];textShadow=1;" vertex="1" connectable="0" parent="CYchLR7dStGbC8uaJ82P-54">
          <mxGeometry x="0.1158" y="1" relative="1" as="geometry">
            <mxPoint x="25" as="offset" />
          </mxGeometry>
        </mxCell>
        <mxCell id="CYchLR7dStGbC8uaJ82P-57" style="edgeStyle=orthogonalEdgeStyle;rounded=1;orthogonalLoop=1;jettySize=auto;html=1;entryX=0.579;entryY=1.008;entryDx=0;entryDy=0;entryPerimeter=0;strokeColor=#006666;align=center;verticalAlign=middle;fontFamily=Helvetica;fontSize=11;fontColor=default;labelBackgroundColor=default;endArrow=classic;curved=0;textShadow=1;" edge="1" parent="1" source="CYchLR7dStGbC8uaJ82P-60" target="CYchLR7dStGbC8uaJ82P-24">
          <mxGeometry relative="1" as="geometry">
            <Array as="points">
              <mxPoint x="-1165" y="-320" />
              <mxPoint x="-2016" y="-320" />
            </Array>
          </mxGeometry>
        </mxCell>
        <mxCell id="CYchLR7dStGbC8uaJ82P-58" value="&lt;span style=&quot;background-color: rgb(230, 255, 204);&quot;&gt;PAYMENT ACKNOWLEDGEMENT&lt;/span&gt;" style="edgeLabel;html=1;align=center;verticalAlign=middle;resizable=0;points=[];textShadow=1;" vertex="1" connectable="0" parent="CYchLR7dStGbC8uaJ82P-57">
          <mxGeometry x="0.1922" y="-3" relative="1" as="geometry">
            <mxPoint x="18" as="offset" />
          </mxGeometry>
        </mxCell>
        <mxCell id="CYchLR7dStGbC8uaJ82P-59" value="&lt;b&gt;BACS&lt;/b&gt;" style="edgeLabel;html=1;align=center;verticalAlign=middle;resizable=0;points=[];textShadow=1;" vertex="1" connectable="0" parent="CYchLR7dStGbC8uaJ82P-57">
          <mxGeometry x="-0.2395" y="-2" relative="1" as="geometry">
            <mxPoint as="offset" />
          </mxGeometry>
        </mxCell>
        <mxCell id="CYchLR7dStGbC8uaJ82P-60" value="Bank" style="shape=image;html=1;verticalAlign=top;verticalLabelPosition=bottom;labelBackgroundColor=#ffffff;imageAspect=0;aspect=fixed;image=https://cdn4.iconfinder.com/data/icons/48-bubbles/48/04.Bank-128.png;textShadow=1;" vertex="1" parent="1">
          <mxGeometry x="-1200.0000000000002" y="-509" width="99" height="99" as="geometry" />
        </mxCell>
        <mxCell id="CYchLR7dStGbC8uaJ82P-62" value="OKTA /AZURE&lt;div&gt;ACITVE DIRECTORY&lt;/div&gt;" style="shape=cylinder3;whiteSpace=wrap;html=1;boundedLbl=1;backgroundOutline=1;size=15;fillColor=#0050ef;fontColor=#ffffff;strokeColor=#FFFFFF;textShadow=1;" vertex="1" parent="1">
          <mxGeometry x="-2340" y="-607.57" width="100" height="90" as="geometry" />
        </mxCell>
        <mxCell id="CYchLR7dStGbC8uaJ82P-63" style="edgeStyle=orthogonalEdgeStyle;rounded=1;orthogonalLoop=1;jettySize=auto;html=1;entryX=1;entryY=0.5;entryDx=0;entryDy=0;entryPerimeter=0;startArrow=classic;startFill=1;curved=0;textShadow=1;" edge="1" parent="1" source="CYchLR7dStGbC8uaJ82P-24" target="CYchLR7dStGbC8uaJ82P-62">
          <mxGeometry relative="1" as="geometry" />
        </mxCell>
        <mxCell id="CYchLR7dStGbC8uaJ82P-64" value="HireRightSterling" style="shape=cylinder3;whiteSpace=wrap;html=1;boundedLbl=1;backgroundOutline=1;size=15;fillColor=#dae8fc;strokeColor=#6c8ebf;textShadow=1;" vertex="1" parent="1">
          <mxGeometry x="-2200" y="-809.9999999999999" width="100" height="90" as="geometry" />
        </mxCell>
        <mxCell id="CYchLR7dStGbC8uaJ82P-65" style="edgeStyle=orthogonalEdgeStyle;rounded=1;orthogonalLoop=1;jettySize=auto;html=1;entryX=0.4;entryY=0.002;entryDx=0;entryDy=0;entryPerimeter=0;curved=0;startArrow=classic;startFill=1;exitX=1;exitY=0.5;exitDx=0;exitDy=0;exitPerimeter=0;textShadow=1;" edge="1" parent="1" source="CYchLR7dStGbC8uaJ82P-64" target="CYchLR7dStGbC8uaJ82P-24">
          <mxGeometry relative="1" as="geometry" />
        </mxCell>
        <mxCell id="CYchLR7dStGbC8uaJ82P-108" value="&lt;span style=&quot;background-color: rgb(204, 255, 255);&quot;&gt;Candidate&lt;/span&gt;&lt;div&gt;&lt;span style=&quot;background-color: rgb(204, 255, 255);&quot;&gt;Assessments&lt;/span&gt;&lt;/div&gt;" style="edgeLabel;html=1;align=center;verticalAlign=middle;resizable=0;points=[];" vertex="1" connectable="0" parent="CYchLR7dStGbC8uaJ82P-65">
          <mxGeometry x="-0.1859" y="-1" relative="1" as="geometry">
            <mxPoint as="offset" />
          </mxGeometry>
        </mxCell>
        <mxCell id="CYchLR7dStGbC8uaJ82P-66" value="BROADBEAN" style="shape=cylinder3;whiteSpace=wrap;html=1;boundedLbl=1;backgroundOutline=1;size=15;fillColor=#d5e8d4;strokeColor=#82b366;textShadow=1;" vertex="1" parent="1">
          <mxGeometry x="-2330" y="-700" width="90" height="80" as="geometry" />
        </mxCell>
        <mxCell id="CYchLR7dStGbC8uaJ82P-67" style="edgeStyle=orthogonalEdgeStyle;rounded=1;orthogonalLoop=1;jettySize=auto;html=1;entryX=0.304;entryY=0.046;entryDx=0;entryDy=0;entryPerimeter=0;curved=0;startArrow=classic;startFill=1;textShadow=1;" edge="1" parent="1" source="CYchLR7dStGbC8uaJ82P-66" target="CYchLR7dStGbC8uaJ82P-24">
          <mxGeometry relative="1" as="geometry">
            <Array as="points">
              <mxPoint x="-2065" y="-640" />
            </Array>
          </mxGeometry>
        </mxCell>
        <mxCell id="CYchLR7dStGbC8uaJ82P-107" value="&lt;span style=&quot;background-color: rgb(204, 255, 255);&quot;&gt;Job Postings&lt;/span&gt;" style="edgeLabel;html=1;align=center;verticalAlign=middle;resizable=0;points=[];" vertex="1" connectable="0" parent="CYchLR7dStGbC8uaJ82P-67">
          <mxGeometry x="-0.2981" y="1" relative="1" as="geometry">
            <mxPoint as="offset" />
          </mxGeometry>
        </mxCell>
        <mxCell id="CYchLR7dStGbC8uaJ82P-69" value="UK Payroll" style="shape=cylinder3;whiteSpace=wrap;html=1;boundedLbl=1;backgroundOutline=1;size=15;fillColor=#fff2cc;strokeColor=#d6b656;textShadow=1;" vertex="1" parent="1">
          <mxGeometry x="-2490" y="-450" width="74.7" height="70" as="geometry" />
        </mxCell>
        <mxCell id="CYchLR7dStGbC8uaJ82P-70" value="USA Payroll" style="shape=cylinder3;whiteSpace=wrap;html=1;boundedLbl=1;backgroundOutline=1;size=15;fillColor=#fff2cc;strokeColor=#d6b656;textShadow=1;" vertex="1" parent="1">
          <mxGeometry x="-2460" y="-390" width="74.7" height="70" as="geometry" />
        </mxCell>
        <mxCell id="CYchLR7dStGbC8uaJ82P-71" value="HK Payroll" style="shape=cylinder3;whiteSpace=wrap;html=1;boundedLbl=1;backgroundOutline=1;size=15;fillColor=#fff2cc;strokeColor=#d6b656;textShadow=1;" vertex="1" parent="1">
          <mxGeometry x="-2434.7" y="-340" width="74.7" height="70" as="geometry" />
        </mxCell>
        <mxCell id="CYchLR7dStGbC8uaJ82P-72" value="Singapore Payroll" style="shape=cylinder3;whiteSpace=wrap;html=1;boundedLbl=1;backgroundOutline=1;size=15;fillColor=#fff2cc;strokeColor=#d6b656;textShadow=1;" vertex="1" parent="1">
          <mxGeometry x="-2394.7" y="-290" width="74.7" height="70" as="geometry" />
        </mxCell>
        <mxCell id="CYchLR7dStGbC8uaJ82P-74" style="edgeStyle=orthogonalEdgeStyle;rounded=1;orthogonalLoop=1;jettySize=auto;html=1;entryX=1;entryY=0;entryDx=0;entryDy=25;entryPerimeter=0;curved=0;textShadow=1;" edge="1" parent="1" source="CYchLR7dStGbC8uaJ82P-24" target="CYchLR7dStGbC8uaJ82P-70">
          <mxGeometry relative="1" as="geometry">
            <Array as="points">
              <mxPoint x="-2100" y="-365" />
            </Array>
          </mxGeometry>
        </mxCell>
        <mxCell id="CYchLR7dStGbC8uaJ82P-75" style="edgeStyle=orthogonalEdgeStyle;rounded=1;orthogonalLoop=1;jettySize=auto;html=1;entryX=1;entryY=0;entryDx=0;entryDy=25;entryPerimeter=0;curved=0;textShadow=1;" edge="1" parent="1" source="CYchLR7dStGbC8uaJ82P-24" target="CYchLR7dStGbC8uaJ82P-71">
          <mxGeometry relative="1" as="geometry">
            <Array as="points">
              <mxPoint x="-2080" y="-315" />
            </Array>
          </mxGeometry>
        </mxCell>
        <mxCell id="CYchLR7dStGbC8uaJ82P-76" style="edgeStyle=orthogonalEdgeStyle;rounded=1;orthogonalLoop=1;jettySize=auto;html=1;entryX=1;entryY=0;entryDx=0;entryDy=45;entryPerimeter=0;curved=0;textShadow=1;" edge="1" parent="1" source="CYchLR7dStGbC8uaJ82P-24" target="CYchLR7dStGbC8uaJ82P-72">
          <mxGeometry relative="1" as="geometry">
            <Array as="points">
              <mxPoint x="-2060" y="-245" />
            </Array>
          </mxGeometry>
        </mxCell>
        <mxCell id="CYchLR7dStGbC8uaJ82P-79" value="&lt;b style=&quot;background-color: rgb(204, 255, 204);&quot;&gt;XML OR API&lt;/b&gt;" style="edgeLabel;html=1;align=center;verticalAlign=middle;resizable=0;points=[];textShadow=1;" vertex="1" connectable="0" parent="1">
          <mxGeometry x="-2220.0033333333336" y="-370" as="geometry" />
        </mxCell>
        <mxCell id="CYchLR7dStGbC8uaJ82P-80" value="&lt;b style=&quot;background-color: rgb(204, 255, 204);&quot;&gt;XML OR API&lt;/b&gt;" style="edgeLabel;html=1;align=center;verticalAlign=middle;resizable=0;points=[];textShadow=1;" vertex="1" connectable="0" parent="1">
          <mxGeometry x="-2220.0033333333336" y="-320" as="geometry" />
        </mxCell>
        <mxCell id="CYchLR7dStGbC8uaJ82P-81" value="&lt;b style=&quot;background-color: rgb(204, 255, 204);&quot;&gt;XML OR API&lt;/b&gt;" style="edgeLabel;html=1;align=center;verticalAlign=middle;resizable=0;points=[];textShadow=1;" vertex="1" connectable="0" parent="1">
          <mxGeometry x="-2216.0033333333336" y="-250" as="geometry" />
        </mxCell>
        <mxCell id="CYchLR7dStGbC8uaJ82P-83" value="Payroll Integrations" style="text;html=1;align=center;verticalAlign=middle;whiteSpace=wrap;rounded=0;textShadow=1;" vertex="1" parent="1">
          <mxGeometry x="-2270" y="-220" width="140" height="30" as="geometry" />
        </mxCell>
        <mxCell id="CYchLR7dStGbC8uaJ82P-91" style="edgeStyle=orthogonalEdgeStyle;rounded=0;orthogonalLoop=1;jettySize=auto;html=1;textShadow=1;" edge="1" parent="1" source="CYchLR7dStGbC8uaJ82P-84" target="CYchLR7dStGbC8uaJ82P-88">
          <mxGeometry relative="1" as="geometry" />
        </mxCell>
        <mxCell id="CYchLR7dStGbC8uaJ82P-84" value="&lt;font color=&quot;#4d4d4d&quot;&gt;Payroll Reports&lt;/font&gt;&lt;div&gt;&lt;font color=&quot;#4d4d4d&quot;&gt;Manual&lt;/font&gt;&lt;/div&gt;" style="shape=process;whiteSpace=wrap;html=1;backgroundOutline=1;textShadow=1;" vertex="1" parent="1">
          <mxGeometry x="-2350" y="-500" width="90" height="51" as="geometry" />
        </mxCell>
        <mxCell id="CYchLR7dStGbC8uaJ82P-87" value="" style="shape=image;verticalLabelPosition=bottom;labelBackgroundColor=default;verticalAlign=top;aspect=fixed;imageAspect=0;image=data:image/png,iVBORw0KGgoAAAANSUhEUgAAAgAAAAIACAYAAAD0eNT6AAAAAXNSR0IArs4c6QAAIABJREFUeAHt3W2QZFd93/HBKSeVshMnlbjiV3mRqryJXZVyqEpSiSupSlGkxPTs3BGMQQgQT5YhEFMQCC5hZBEcm+AqExzH9mKsgE2Btba6Z1di9TAECT2BbSSktdADQhKSgrSgJ7RarXa3Ym5yF7c0O9uzc7v7nNvn3PNR1Whmerpvn/s7v/P/fc+ZOWeXlvxHAQpQgAIUoAAFKEABClCAAhSgAAUoQAEKUIACFKAABShAAQpQgAIUoAAFKEABClCAAhSgAAUoQAEKUIACFKAABShAAQpQgAIUoAAFKEABClCAAhSgAAUoQAEKUIACFKAABShAAQpQgAIUoAAFKEABCvRUgXP2rf/4yuXn/svl4dq5g43VteVR9dKX7Vv/sZ7ertuiAAUoQAEKFKhAvfSSlQMrP7k8qi4cDNc+PRhV9w1GVT3h48TyqNpYGVVVgSq5ZQpQgAIUoEDeCrx074U/3MzoB6PqXSsb1b7BqHp8QthPAoCtj10/+JNX/uO8ldB6ClCAAhSgQI8V2LN/zz8YbKyurAzXPrK8sXrTYFQdnyHwt4b/+OvvDUbVP++xdG6NAhSgAAUokIkC7ZfzxyE+7+enBsO1f5qJOppJAQpQgAIU6IcCgZbz54WAQ007+qGou6AABShAAQokqMAr9q3/RPOX+cvDtd8YbKx+eWVUnQy0nD8XBKxsrL43Qbk0iQIUoAAFKJCnAsuXn/uPBhurb1gZVXuXR9XXB6Pq+ykE/oQ2PLRUL70kT5W1mgIUoAAFKLBABRJZzp95JWB5Y/VfLVA+b00BClCAAhTIQ4GIf50/c4hPmNm3vpZfA+ThO62kAAUoQIGOFchoOb916G8Dhv/esaTejgIUoAAFKJCWAuv71v/mK/bv+TfLG6sXrWysXjkYVU9tC8tZQzbd122sfi6tXtAaClCAAhSgQGQF+racPwusLI+qyyLL7PIUoAAFKECBxSpQwHL+1CsNAGCxnvTuFKAABSgQWIHc/zp/ltn8LK8BAIGN53IUoAAFKNCtApbzJ/5LgLuuCACAbn3q3ShAAQpQYE4FLOfPFvjbVwkAwJxG9HIKUIACFIingOX8MGG/Pfyb7wFAPN+6MgUoQAEKTKmA5fx4gb8dAgDAlOb0dApQgAIUCKeA5fzuAh8AhPOtK1GAAhSgwBQKWM5fXNhvD3+/ApjCuJ5KAQpQgALTKWA5P63A3w4BfgUwnZ89mwIUoAAFdlDAcn7agQ8AdjCuhylAAQpQoL0ClvPzCvvt4e9XAO297pkUoAAFilbAcn7+gb8dAvwKoOgh7eYpQAEKTFbAcn7/Ah8ATPa6RylAAQoUq4Dl/P6H/fbw9yuAYoe7G6cABUpWwHJ+mYG/HQL8CqDkKuDeKUCBIhSwnC/wt4e/FYAihr6bpAAFSlLAcr6wnxT2kx6zAlBSZXCvFKBA7xSwnC/wJ4V7m8cAQO/KgRuiAAX6rIDlfIHfJtzbPAcA9LlSuDcKUCBrBSznC/s2QT7rcwBA1uVB4ylAgT4pYDlf4M8a5rO8DgD0qXq4FwpQICsFLOcL/FmCO9RrAEBW5UJjKUCBXBWwnC/sQwV3qOsAgFyriXZTgAJJK2A5X+CHCupY1wEASZcQjaMABXJRwHK+wI8V1LGuCwByqS7aSQEKJKOA5XxhHyuUu7wuAEimpGgIBSiQqgKW8wV+l8Hc1XsBgFQrjnZRgAILU8ByvsDvKoQX+T4AYGElxhtTgAIpKGA5X9gvMoQX+d4AIIUKpA0UoEBnCljOF/iLDN2U3hsAdFZ2vBEFKLAIBSznC/yUQjeptgyr+1dG1V4fEzTYf+qxywej6ubBcO2OwbC6azCqbh2MquuXR9Uf0myCZj320mBj9XcGo+qSlVH1xlfsW/+JRWSZ99xFAcv5wj6pgB3pD/3BAz30wF8ORtV1g+Haz+wSSX4cUwHL+YpLD4tL7Z74mgcy8cBw7dJzDp7zN2LmnGv/lQKW8zMZFGa+QpwHeKAcD9y8vm/9RwV1QAUs5wt7syAe4AEeyMQDB9f3rf+1gBFY1qUs5xvomQx0M7tyZnb6Wl+39sDKxurPl5Xac9yt5XyBL/B5gAd4oC8eWBlVj778mpf/yByx2M+XWs43yPsyyN0HL/MAD+zkgeXh2mv6meJT3JXlfANkpwHicd7gAR7orQc2Vj83RVT246mW8w3o3g5ovwNt/TtQHlAHeKC6qx+pvsNdWM43yA1yHuABHuCBiR54ZofozPNhy/kTO9msyMyYB3iAB3jgDA/kmfR/1WrL+QIf2fMAD/AAD8zmgWwAwHL+bB1sYNCNB3iAB3hgkgeSBQDL+Qw7ybAe4wse4AEeCOOBZADAcn6YDjUw6MgDPMADPNDGAwsBAMv5zNnGnJ7DJzzAAzwQzwOdAIDl/HgdaHDQlgd4gAd4YBYPRAEAy/nMOIsZvYZveIAHeKA7D8wNAJbzu+ssA4PWPMADPMADoTwwNQBYzme+UOZzHV7iAR7ggcV5YFcAWN1Y/SfLo+rCwXDt04NRdZ/OWlxn0Z72BXvg8GBUbZb6sTysDkXq+2I1zcxLUfp/IgCsXLHy9wej6lcHo+qBSKY740hC7yPceIAHdvLA8qi6bGKxKuTB5eHa+k7azPN4IfJlf5ud9f+p2f6oemYeU3mtQs4DPBDSAwAAAGSf4nPcQHwAqJdesjKq9oYctK4lBHiAB0J4AAAAgDnyM/uXRgeAwcbqR0MMVNdQ8HmAB0J7AAAAgOxTfI4biAoAK8O1fzcYVd8PPWhdTxDwAA+E8AAAAABz5Gf2L40GAJdccskPDTZW7w4xSF1DsecBHojhAQAAALJP8TluIBoADDZWXxFjwLqmIOABHgjlAQAAAObIz+xfGhMAPhFqkLqOgs8DPBDDAwAAAGSf4nPcQDQAWB5VX48xYF1TEPAAD4TyAAAAAHPkZ/YvjQYAg1H1vVCD1HUUfB7ggRgeAAAAIPsUn+MGYgKAv/4fKdoxirZr8lUoDwAAADBHfmb/0pgA4FheAMADPJC0BwAAAMg+xee4AQCgQCddoEPN9FzHqsEkDwAAADBHfmb/UgAAAAAADxTrAQAAALJP8TluAAAo/sUW/0kzQo+VtVIAAADAHPmZ/UsBAAAAADxQrAcAAADIPsXnuAEAoPgXW/zN9sua7U/qbwAAAObIz+xfCgAAAADggWI9AAAAQPYpPscNAADFv9jiP2lG6LGyVgUAAACYIz+zfykAAAAAgAeK9QAAAADZp/gcNwAAFP9ii7/Zflmz/Un9DQAAwBz5mf1LAQAAAAA8UKwHAAAAyD7F57gBAKD4F1v8J80IPVbWqgAAAABz5Gf2LwUAAAAA8ECxHgAAACD7FJ/jBgCA4l9s8TfbL2u2P6m/AQAAmCM/s38pAAAAAIAHivUAAAAA2af4HDcAABT/Yov/pBmhx8paFQAAAGCO/Mz+pQAAAAAAHijWAwAAAGSf4nPcAABQ/Ist/mb7Zc32J/U3AAAAc+Rn9i8FAAAAAPBAsR4AAAAg+xSf4wYAgOJfbPGfNCP0WFmrAgAAAMyRn9m/FAAAAADAA8V6AAAAgOxTfI4bAACKf7HF32y/rNn+pP4GAABgjvzM/qUAAAAAAB4o1gMAAABkn+Jz3AAAUPyLLf6TZoQeK2tVAAAAgDnyM/uXAgAAAAB4oFgPAAAAkH2Kz3EDAEDxL7b4m+2XNduf1N8AAADMkZ/ZvxQAAAAAwAPFegAAAIDsU3yOGwAAin+xxX/SjNBjZa0KAAAAMEd+Zv9SAAAAAAAPFOsBAAAAsk/xOW4AACj+xRZ/s/2yZvuT+hsAAIA58jP7lwIAAAAAeKBYDwAAAJB9is9xAwBA8S+2+E+aEXqssFWBYXX/yqjaW+rHYFRtxvB8qXrmdt+x+n8phqlcs7DiDM7AGQ/wAA9k5wEAwLTZmRZgAkwe4AEemN8DAAAAAAAe4AEe4IECPQAACux05Dw/OdOQhjzAA7l7AAAAAOTPAzzAAzxQoAcAQIGdnju1ar+ZFw/wAA/M7wEAAACQPw/wAA/wQIEeAAAFdjpynp+caUhDHuCB3D0AAAAA8ucBHuABHijQAwCgwE7PnVq138yLB3iAB+b3AAAAAMifB3iAB3igQA8AgAI7HTnPT840pCEP8EDuHgAAAAD58wAP8AAPFOgBAFBgp+dOrdpv5sUDPMAD83sAAAAA5M8DPMADPFCgBwBAgZ2OnOcnZxrSkAd4IHcPAAAAgPx5gAd4gAcK9AAAKLDTc6dW7Tfz4gEe4IH5PQAAAADy5wEe4AEeKNADAKDATkfO85MzDWnIAzyQuwcAAABA/jyQgwcOD0bVZrEfw+pQpLApV9Oc/BSp/wGA4p9D8dfGwn26PKouWyr4v+Xh2noMAChY0qxuPVr/xzCVa1oa4wEeCOkBAAAAskrswI0FAIXPgEIWU9cSzrl5AAAAgMCZmtXlAAAAsAzOA8V6AAAAgKwSO3BjAYDiX2zxz222qr3hV1gAAAAInKlZXQ4AAAAAwAPFegAAAICsEjtwYwGA4l9s8TejDj+jzk1TAAAAAmdqVpcDAAAAAPBAsR4AAAAgq8QO3FgAoPgXW/xzm61qb/gVCwAAAAJnalaXAwAAAADwQLEeAAAAIKvEDtxYAKD4F1v8zajDz6hz0xQAAIDAmZrV5QAAAAAAPFCsBwAAAMgqsQM3FgAo/sUW/9xmq9obfsUCAACAwJma1eUAAAAAADxQrAcAAADIKrEDNxYAKP7FFn8z6vAz6tw0BQAAIHCmZnU5AAAAAAAPFOsBAAAAskrswI0FAIp/scU/t9mq9oZfsQAAACBwpmZ1OQAAAAAADxTrAQAAALJK7MCNBQCKf7HF34w6/Iw6N00BAAAInKlZXQ4AAAAAwAPFegAAAICsEjtwYwFAj4p/tf+V9QVXvaV+z3Xvq9/xhV+oX/v5NxRb2FOfia5srNVvuebC+j9d/5/rd33xPaf6LfU297F9AAAABM7UrC4HAHoAAJfc8uH6+oduqL937Hv1yZMnT/t46OmH6z+5Z1i/+eoLwcCC+3pltFY3fXXDwzfWzz7/7Gn91PTbY0cO11d+8/P1z2/+B33VUV8BAACQVWIHbiwA6KjQxJg9vX3zP9Z3HD50RpBsh4Dm+2PHj9Wje/fX5x5YFy4L6POmr24/fEervjpx4kR91f3X1K+64jX6KnJfAQAAEDhTs7ocAIhcYGIEf3PND93yK/Uzx55pFShbgeCu795dv/7gmwRLh/3+gZsuro8cOzJ1X33r6YfqN139c/oqYl8BAACQVWIHbiwAiFhcYoX/RTd+sH7+xPNTB8oYBL7xxH1mlx31+/u/dNGp1Zex9tN+bn6F87qDbwQBkfoLAACAwJma1eUAQKTCEiv8m9n7k0efnDn8xwF0/UNfEiqR+/7VV55ff/uZR+fuq6/8nz/TV5H6CgAAgKwSO3BjAUCkwhILAK785sG5A2UMAc2vEWK103Wr+toHN4P11SU3f1hfRRirAAAABM7UrC4HACIUlVjh18z+jx2ffel/HPzjz48deaxev+I8wRLBA++/4aL6xMkTwQDg1kdv008R+gkAAICsEjtwYwFAhKISCwB+89b/GSxQxhBw+b1DwRLYA81Oi+YP+MYah/jc7Ay44Ko366vAfQUAAEDgTM3qcgAgcEGJFf7Ndb/4reuDhkoTTMdPHD91EE3Mdpd27c/c+dng/dT01X+55b8CgMDjFQAAgKwSO3BjAUDgghIz7A595y+iBMvdj99T79k4V7gE8EJziM9zx5+L0k+X/sWn9FGAPto6RgEAAAicqVldDgAELihbi0vorx946oEowdLMLn/39k8Ilzm90Jz01/yuPsSS/6RrfPrOP9RHc/bR9jEJAABAVokduLEAIHBB2V5gQn7/tcdujxYuzaFCfsc837+O9xt//vFo/dMAwe/d8fsAIPB4BQAAIHCmZnU5ABC4oIQM/O3XuuaBcNvKJs0wb3rkZgEzox/O+/zr68effSIqAPzSTb+sf2bsn+1jafw9AAAAWSV24MYCgMAFZVxYYnz+yJ/+etSAaaDA2QCzrQKE3PM/Cc6akx9ffeVrAUDg8QoAAEDgTM3qcgAgcEGJEfzjazYny81ypvykQNnpMWcDTA8Aoff8T+qb6x66XvhHGKsAAABkldiBGwsAIhSVcWDH+Bxri9nW0HE2QHsIiLHnf2tfNF83Bwq9+7r3AoAIYxUAAIDAmZrV5QBAhKISI/jH1/zZK15bHz7ynai/CnA2QHsA6ALINh/8gvCPNE4BAADIKrEDNxYARCos48CO8fnXvvLRqADQzDqdDbA7BFx47dvro8/H2fM/XgV48uhT9fkHLwAAkcYpAAAAgTM1q8sBgEiFJUbwb73mLY98OToEOBtgZwiIved/DAAf++rHhX/EMQoAAEBWiR24sQAgYnHZGtihv37T1W+tjzx/JCoEOBtgZwBognkc0rE+3374jroBjdDecb0X+xUAAIDAmZrV5QBApgDQFPFLD30qegjd+MhNAmibR7rY83/s+LH6bZvvpP027UPDCwAAAFklduDGAoDIBSZ0wdp6vdWNV9b3PvGN6BDgbIAXZ4yN/rH3/DcrCs0fF27ta1+f3gfB9BhW96+Mqr2lfgxG1WYwLbfU0lL1zO2+Y/X/UgxTueaZRbDZHtb8U7GxlqGb6zob4EXdu9jz/9DTD9fN9kJ+f1F3WtCCB/LxAADYQsOxjXvgviujAkADAc4GqOq1/ev1g099K7rWH7jxYuHf4fiJPT5dP5/g0ldh+goAdFjATp0N8OzhqMHkbIDq1LJ8zJWW5trNrxcUoTBFiI505IHFeAAAdAgAjcmdDRDX6Pb8x9VXoaYvD/THAwCgYwBoBo+zAeIMIHv+4+iq4NOVB/rpAQCwAABwNkCcwWTPfxxdFX+68kA/PQAAFgAAzWByNkDYAWXPf1g9FXx68kD/PQAAFgQAzgYIO7js+Q+rp+JPTx7ovwcAwIIAoBlczgYIM8Ds+Q+jo4JPRx4oywMAYIEA0Aw2ZwPMN+Ds+Z9PPwWffjxQrgcAwIIBwNkA8w2+5ihee/7n01AA0I8HyvQAAFgwADQDz9kAsw0+e/5n002xpxsP8EDjAQCQAAA0HeFsgOkGpD3/0+ml4NOLB3hguwcAQCIA4GyA6QanPf/T6bV94PuefjzAAwAgEQBoBqOzAdoNSHv+2+mkwNOJB3jgbB4AAAkBgLMB2g1We/7b6XS2ge9nNOQBHgAACQFAMyCdDXD2QWnP/9n1UdTpwwM80NYDACAxAGg6ztkAkwewPf+TdWk72D2PfjzAA1s9AAASBABnA0wepPb8T9Zl64D2NY14gAfaegAAJAgATec5G+D0QWzP/+l6tB3gnkc3HuCBnTwAABIFgKbDnA3wg4Frz78CNhhVhwejarPYj2F1aKciPufj5Wqak58i9T8ASBgAnA3wg+Cz5x8ALI+qy5YK/m95uLY+Z9DXk15fsKRZ3Xq0/p9kCo+lU3BLPxvAnv90vLjIugAAAEBWiR24sQAg4Zl6zMJY+tkA9vwDgGZ8AQAAEDhTs7ocACgUAJriV+rZAPb8C/8xXAMAAJBVYgduLAAoGACaIlja2QD2/Av/cfg3nwEAAAicqVldDgAUDgClnQ1gzz8AAAAvZlS0AHjxLXyVsALR+n/rIPN12kW3lLMB7PlP24eLqBNWAKwAJJzP0ZsGAApfARgX3b6fDWDPv/Afe33rZwAAAKKnbMJvAAAAwKl9vH0/G8CefwCwNfjHXwMAAJBwPkdvGgAAAC8c5NHXswHs+Rf+48Df/hkAAIDoKZvwGwAAAPACAPT1bAB7/gHA9uAffw8AAEDC+Ry9aQAAALwAAE1R7NvZAPb8C/9x2E/6DAAAQPSUTfgNAAAAOA0AmiLZl7MB7PkX/pNCf+tjAAAAJJzP0ZsGAADAGQDQl7MB7PkHAFvDftLXAAAARE/ZhN8AAACAMwCgKZS5nw1gz7/wnxT42x8DAAAg4XyO3jQAAAAmAkBTKHM9G8Cef+G/Peh3+h4AAIDoKZvwGwAAALAjAOR6NoA9/wBgp8Df/jgAAAAJ53P0pgEAALAjADTFMrezAez5F/7bQ/5s3wMAABA9ZRN+AwAAAM4KALmdDWDPPwA4W+Bv/xkAAAAJ53P0pgEAAHBWAGgKZi5nA9jzL/y3B/xu3wMAABA9ZRN+AwAAAHYFgKaIpn42gD3/wn+3sJ/0cwAAABLO5+hNAwAAoBUApH42gD3/AGBSwO/2GAAAANFTNuE3AAAAoBUANIU01bMB7PkX/rsF/U4/BwAAIOF8jt40AAAAWgNAU0RTOxvAnn/hv1O4t3kcAACA6Cmb8BsAAAAwFQCkdjaAPf8AoE3Q7/QcAAAAEs7n6E0DAABgKgBoCmkqZwPY8y/8dwr2to8DAAAQPWUTfgMAAACmBoBUzgaw5x8AtA36nZ4HAABAwvkcvWkAAABMDQBNMV302QD2/Av/nUJ9mscBAACInrIJvwEAAAAzAUBTZBd1NoA9/8J/mpA/23MBAABIOJ+jNw0AAICZAWBRZwPY8w8Azhbq0/wMAACA6Cmb8BsAAAAwMwA0hbbrswHs+Rf+0wT8bs8FAAAg4XyO3jQAAADmAoCmwHZ1NoA9/8J/t0Cf9ucAAABET9mE3wAAAIC5AaCrswE+cccn65MnT0b9uP3wHXUDGtMGiefnCScAAAAknM/RmwYAAECQsOvibIDnjj8XNfyPHT9Wv23znUH0AAR5AAEAAADRUzbhNwAAACBI4HV1NkDMFYDmjwsFdx7BHaqfAAAASDifozcNAACAYKHXxdkAsQDgoacfrs89sB5Mi1AB5TpxgQQAAIDoKZvwGwAAABA09Lo4GyAGBHzgxouD6iC44wZ3KH0BAABIOJ+jNw0AAICgwdfF2QChAaA5UjhUoLhOHsE/7icAAACip2zCbwAAAEDw8OvibIBQEPDk0afq8w9eEFyDccD4nDYQAAAAkHA+R28aAAAAUcKvi7MBQkBA888JC+m0Qzpm/wAAABA9ZRN+AwAAAKIEYBdnA8wLAPb8lxv8Y6gAAAAg4XyO3jQAAACiAEBTYLs4G2BWCLDnX/g3HgUAACB6yib8BgAAAEQDgJTPBrDnHwCcWgUYVvevjKq9pX4MRtXmeDUk5OdS9cztvmP1/1JIM7lWvsU6xbMB7PnP109qgb7jgfQ9AACsLLywspDa2QD2/KdfQBR5fcQD+XoAAACAFwAgpbMB7PnPt6gIBH3HA3l4AAAAgBcAoBm0KZwNYM9/HsVDkddPPJC3BwAAADgNAJoBveizAez5z7uoCAX9xwN5eAAAAIAzAGCRZwPY859H4VDg9RMP5O8BAAAAzgCAZmAv4mwAe/7zLyhCQR/yQD4eAAAAYCIALOJsAHv+8ykciry+4oH8PQAAAMBEAGgGd5dnA9jzn38xEQj6kAfy8gAAAAA7AkAzmK/85sF61mN8p3mdPf95FQ6FXn/xQP4eAAAA4KwAcNndfxwdAE6cPFG/64vvOWs7FJv8i40+1Ic8kJYHAAAA2DF4L7z27fVzx5+LDgDNSsHdj99T79k4d8e2KBxpFQ79oT94IH8PAAAAMDF0V0Zr9a2P3tZJ+I9/VfC7t39iYlsUmvwLjT7UhzyQngcAAACYGLof++pvdhr+DQQ8c+yZ+oKr3jyxPYpHesVDn+gTHsjbAwAAAJwRuOd9/vX1E0ef6BwAGgi48ZGbzmiPIpN3kdF/+o8H0vQAAAAAZwTu5oNfWEj4j38V8KFbfuWMNikgaRYQ/aJfeCBfDwAAAHBa2L7/hovq5q/yx2G8iM+PHXmsXr/ivNPapcjkW2T0nb7jgTQ9AAAAwAtBu7Z/vX7wqW8tNPzHwHH5vcMX2qV4pFk89It+4YG8PQAAAMALQfuZr382ifBvIOD4iePOBuDNF7wpaPIOGv2XZv8BAEX2VJHtcs//eJa/22dnA6RZNBRz/cID/fAAAAAA9SL2/O8W/uOfOxugH4UmQGAcHoyqzWI/htWhABpOWlEpV9Oc/BSp/wEAAKgXsed/HPC7fXY2AABogm95VF22VPB/y8O19RgAULCkWd16tP6PYSrXzKdoL3LP/27hP/65swHy8VOssQ8AAEBWiR24sQDATH3S8t3cjy16z/845Hf77GyAsiEAAACAwJma1eUAAACYO+y3z85S2PO/W/CPf+5sAACQVcUO3NhoARC4nS4XR4Fo/b89FHxfRqFNac//OOR3++xsgDK8OakGWQGwAhAnWvO4KgCwAhB0BSClPf+7Bf/4584GAAB5lOvwrYwWAOGb6ooRFIjW/5No22P9LrQp7vkfh/xun50N0G9v7lR7rABYAYiQq9lcEgBYAQiyApDynv/dwn/8c2cDlAcBAAAAZJPWERoKAABAEADoYs9/s1Q/DusYn50NAAAi1NikLxktAJK+a40bKxCt/3dacvN4/4psF3v+jx0/Vl9+zygqADRQ4WyA/vnzbDXHCoAVgHEYlvgZAFgBmHsFoIs9/5+587P16sYr63uf+EZ0CHA2QDkQAAAAQInBP75nAAAA5gKALvb8P/T0w/W5B9ZPtfPd1723PnHiRFQIcDYAABgXyL5/jhYAfReuJ/cXrf/PtuzmZ/0osF3t+f/AjRefBikH7rsyKgA0vwpwNkA/PLpbrbECYAWgJ1k+020AACsAp4XrbgVz68+72PN/7YObZ7TvZ694bX342cNRIcDZAABgpoqa2YuiBUBmOpTa3Gj9vzUofN2/YtrFnv8njz5Vn3/wgjMAoPHTr33lo1EBoFkFcDZA/3y7vRZZAbACUGr4N/cNAKwATAzY7YVy6/dd7fn/2Fc/fta23fLIl6NDgLMB+g0BAAAAAIDwY3xpa2D4OrzAi9S0iz3/tx++o25A42z3+aar31ofef5IVAhwNkC/vLvdTwAAAACA8GO8ErdzAAAWd0lEQVQcAPR0ZaGrPf9v23znWcN/XMgvPfSpqADgbIDwxWHcdyl8BgAAAACEH+MAoKcA0NWe/7bh4GyA8IO3rfZ9eB4AAAAAIHwNAQA9BICu9/y3DRhnA4QfwG21z/15AAAAAIDw9QMA9AwAFrXnv23AOBsg/CBuq33OzwMAAAAAhK8dAKBnALCoPf9tw8XZAOEHcVvtc34eAAAAACB87QAAPQKARe/5bxswzgYIP5Dbap/r8wAAAAAA4esGAOgJAKSy579twDgbIPxgbqt9js8DAAAAAISvGQCgJwCQyp7/tuHibIDwg7mt9jk+DwAAAAAQvmYAgB4AQGp7/tsGjLMBwg/ottrn9jwAAAAAQPh6AQB6AACp7flvGy7OBgg/oNtqn9vzAAAAAADh6wUAyBwAUt3z3zZgnA0QflC31T6n5wEAAAAAwtcKAJAxAKS+579twDgbIPzAbqt9Ls8DAAAAAISvEwAgYwBIfc9/23BxNkD4gd1W+1yeBwAAAAAIXycAQKYAkMue/7YB42yA8IO7rfY5PA8AAAAAEL5GAIAMASC3Pf9tA8bZAOEHeFvtU38eAAAAACB8fQAAGQJAbnv+24aLswHCD/C22qf+PAAAAABA+PoAADIDgFz3/LcNGGcDhB/kbbVP+XkAAAAAgPC1AQBkBgC57vlvGy7OBgg/yNtqn/LzAAAAAADhawMAyAgAct/z3zZgnA0QfqC31T7V5wEAAAAAwtcFAJAJAPRlz3/bgHE2QPjB3lb7FJ8HAAAAAAhfEwBAJgDQlz3/bcPF2QDhB3tb7VN8HgAAAAAgfE0AABkAQN/2/LcNGGcDhB/wbbVP7XkAAAAAgPD1AAAkDgB93fPfNmCcDRB+0LfVPqXnAQAAAADC1wIAkDgA9HXPf9twcTZA+EHfVvuUngcAAAAACF8LAEDCAND3Pf9tA8bZAOEHflvtU3keAAAAACB8HQAACQNA3/f8tw0XZwOEH/httU/mecPq/pVRtbfUj8Go2ozRF6Xqmdt9x+p/AJAoAJSy579tUXM2AAho6xXP4xUeaOcBAJAgAJS257/tYHU2QLtB3VZPz6MnD5TtAQCQIACUtue/bRFyNkDZxaqtTzyPT3ignQcAQGIAUOqe/7YD1tkA7QZ2Wz09j548UK4HAEBCAFD6nv+2hcjZAOUWrLYe8Twe4YHdPQAAEgKA0vf8tx2wzgbYfWC31dLzaMkD5XoAACQCAPb8TzcInQ0wnV6KPL14gAe2ewAAJAIA9vxPNzidDTCdXtsHvu/pxwM8AAASAAB7/mcbiM4GmE03hZ9uPMADjQcAwIIBwJ7/+QaiswHm008Q0I8HyvUAAFgwANjzP9/gczbAfPop/vTjgXI9AAAWCAD2/IcZeM4GCKOjIKAjD5TlAQCwIACw5z/sQHM2QFg9BQE9eaD/HgAACwIAe/7DDi5nA4TVU/GnJw/03wMAYAEAYM9/nIHlbIA4ugoCuvJAPz0AABYAAPb8xxlMzgaIo6viT1ce6KcHAEDHAGDPf9yB5GyAuPoKAvryQH88AAA6BAB7/rsZOM4G6EZnQUBnHsjbAwCgQwCw57+bweJsgG50VvzpzAN5ewAAdAQA9vx3O1CcDdCt3oKA3jyQnwcAQAcAYM//YgaGswEWo3ukIDg8GFWbxX4Mq0ORdC1X05z8FKn/AUAHAGDP/2KCyNkAi9E9RlAtj6rLlgr+b3m4th5D14IlzerWo/V/DFO55ouF157/F7VYhC+cDbBY/UP1OQAAAFklduDGAoAOZuqhitXW69jzv9gAcjbAYvXfOhbm+RoAAIDAmZrV5QBAhgBgz38a4eNsgDT6AQDMnjnRAmD2JnllhwpE6/95BqXX7lxYmz3/Dz39cH3y5MloHydOnqgvuvGDtX7YuR/G2hy474po/TDu48vvHeqLSKBuBcAKQId5m9xbAYBIhWUcEKE/f+KOT0YPnGsf3BQ4LX3RxdkAx44fq9941Vv1Scs+mWbMAQAAkFwqd9ggABChqExTgKZ57srGWv3YkceiAsCTR5+qzz94gbCZwhe/+pX/FrVPmpWAy+8d6ZMp+qTtuAIAAKDDvE3urQBAhKLStvhM+7z3fekXowfNx776cUEzgydinw3w7Wce1S8z9MtuYwwAAIDkUrnDBgGACEVlt6Iz689//9D/igoAXzt8e90cLjRr+0p+3Zuu/rn62eefjdo/b776Qn0TeLwCAADQYd4m91YAIHBBiRmCMf8xmub3zG/bfKeAmcMPsc8GaFaAYvqrxGsDAACQXCp32CAAMEfB77pgXv3ANdFmmM0/KNT1/fTt/ZqzAe578r5ofXTxzR/SR4HHKwAAAB3mbXJvBQACF5SYofZHd++LEi7NtsJzD6wLlwBeiHk2QHPtmP4q8doAAAAkl8odNggABCj6XRXO37rtt4MDgD3/u+/1n7Z/Y50N0Bz/PG1bPP/s/QsAAECHeZvcWwGAjACg+UOz8eEwoT7b83/2gJglQGOcDXDX43cL/whjFQAAgORSucMGAYAIRWWW0Gj7mru+e3cwCHjy6JP1+QffIFgieCD02QC/d8el+ilCPwEAANBh3ib3VgAgQlFpG+azPK/5Q7BQs397/sPP/rf2aaizAb777Hfr9SvOAwARxioAAADJpXKHDQIAEYrK1hCI8fUND980NwTc8shX7PmP3PcXXPWWujlZcV5g+8if/rrwj9RXAAAAdJi3yb0VAIhUWGIE//iar7riNXNtN3vgqQdqf1AWd/Y/7qsP3HRx3ZyxMCsEfPauPxL+EccoAAAAyaVyhw0CABGLyzgEYnxuAvzWR2+bOlju/M7X69df9Uah0mG/f/CmS+qnn3t6qr46ceJE/Qdf/4xVmsj9BAAAQId5m9xbAYDIBSZG+I+vWe1/Zf3JQ5fWTz23+zLzkWNHTgVKtf9Vwn8Bfd78a343PXJz3Wy73G01oFmhaVYOxv3sc7zVGgAAAJJL5Q4bBAAWEAahC/prrnxd/fFb/0fd/NHZY0cO18eOP38qZB5/9on6z7795/XvfG1vfd7nXydQEujrd3zhF+rL7v7j+u7H76mPPn/0VD81/dUcxrT54BfqS275cL1n41x91VFfAQAA0GHeJvdWAKCjQhM69M92veafDW4+zvYcP4s3q5xG22YVZ5rne27YfgMAACC5VO6wQQCghwAgJMKGBD37qycAAAAd5m1ybwUAAIAZKA8U6wEAAACSS+UOGwQAFP9ii7+ZfX9n9m37FgAAgA7zNrm3AgAAAADwQLEeAAAAILlU7rBBAEDxL7b4t50lel5/VwoAAADoMG+TeysAAAAAAA8U6wEAAACSS+UOGwQAFP9ii7+ZfX9n9m37FgAAgA7zNrm3AgAAAADwQLEeAAAAILlU7rBBAEDxL7b4t50lel5/VwoAAADoMG+TeysAAAAAAA8U6wEAAACSS+UOGwQAFP9ii7+ZfX9n9m37FgAAgA7zNrm3AgAAAADwQLEeAAAAILlU7rBBAEDxL7b4t50lel5/VwoAAADoMG+TeysAAAAAAA8U6wEAAACSS+UOGwQAFP9ii7+ZfX9n9m37FgAAgA7zNrm3AgAAAADwQLEeAAAAILlU7rBBAEDxL7b4t50lel5/VwoAAADoMG+TeysAAAAAAA8U6wEAAACSS+UOGwQAFP9ii7+ZfX9n9m37FgAAgA7zNrm3AgAAAADwQLEeAAAAILlU7rBBAEDxL7b4t50lel6PVwqG1f0ro2pvqR+DUbUZw9+l6pnbfcfq/6UYpnLNHhdiIAbEeIAHeKAXHgAAjNwLI4NO0MkDPMAD03kAAAAAAMADPMADPFCgBwBAgZ2OkqejZHrRiwd4oI8eAAAAAPnzAA/wAA8U6AEAUGCn95Fk3ZMZGg/wAA9M5wEAAACQPw/wAA/wQIEeAAAFdjpKno6S6UUvHuCBPnoAAAAA5M8DPMADPFCgBwBAgZ3eR5J1T2ZoPMADPDCdBwAAAED+PMADPMADBXoAABTY6Sh5OkqmF714gAf66AEAAACQPw/wAA/wQIEeAAAFdnofSdY9maHxAA/wwHQeAAAAAPnzAA/wAA8U6AEAUGCno+TpKJle9OIBHuijBwAAAED+PMADPMADBXoAABTY6X0kWfdkhsYDPMAD03kAAAAA5M8DPMADPFCgBwBAgZ2OkqejZHrRiwd4oI8eAAAAAPnzQA4eODwYVZvFfgyrQ5ECqFxNc/JTpP4HAIp/DsVfGwv36fKoumyp4P+Wh2vrMQCgYEmzuvVo/R/DVK5puYwHeCCkBwAAAMgqsQM3FgAUPgMKWUxdSzjn5gEAAAACZ2pWlwMAAMAyOA8U6wEAAACySuzAjQUAin+xxT+32ar2hl9hAQAAIHCmZnU5AAAAAAAPFOsBAAAAskrswI0FAIp/scXfjDr8jDo3TQEAAAicqVldDgAAAADAA8V6AAAAgKwSO3BjAYDiX2zxz222qr3hVywAAAAInKlZXQ4AAAAAwAPFegAAAICsEjtwYwGA4l9s8TejDj+jzk1TAAAAAmdqVpcDAAAAAPBAsR4AAAAgq8QO3FgAoPgXW/xzm61qb/gVCwAAAAJnalaXAwAAAADwQLEeAAAAIKvEDtxYAKD4F1v8zajDz6hz0xQAAIDAmZrV5QAAAAAAPFCsBwAAAMgqsQM3FgAo/sUW/9xmq9obfsUCAACAwJma1eUAAAAAADxQrAcAAADIKrEDNxYAKP7FFn8z6vAz6tw0BQAAIHCmZnU5AAAAAAAPFOsBAAAAskrswI0FAIp/scU/t9mq9oZfsQAAACBwpmZ1OQAAAAAADxTrAQAAALJK7MCNBQCKf7HF34w6/Iw6N00BAAAInKlZXQ4AAAAAwAPFegAAAICsEjtwYwGA4l9s8c9ttqq94VcsAAAACJypWV0OAAAAAMADxXoAAACArBI7cGMBgOJfbPE3ow4/o85NUwAAAAJnalaXAwAAAADwQLEeAAAAIKvEDtxYAKD4F1v8c5utam/4FQsAAAACZ2pWlwMAAAAA8ECxHgAAACCrxA7cWACg+Bdb/M2ow8+oc9MUAACAwJma1eUAAAAAADxQrAcAAADIKrEDNxYAKP7FFv/cZqvaG37FAgAAgMCZmtXlAAAAAAA8UKwHAAAAyCqxAzcWACj+xRZ/M+rwM+rcNAUAACBwpmZ1OQAAAAAADxTrAQAAALJK7MCNBQCKf7HFP7fZqvaGX7EAAAAgcKZmdTkAAAAAAA8U6wEAAACySuzAjQUAin+xxd+MOvyMOjdNAQAACJypWV0OAAAAAMADxXoAAACArBI7cGMBgOJfbPHPbbaqveFXLAAAAAicqVldDgAAAADAA8V6AAAAgKwSO3BjAYDiX2zxN6MOP6POTtNhdf/KqNpb6sdgVG3G6LNS9cztvmP1/1IMU7mmgs0DPMADPMADaXsAAFhZsLLAAzzAAzxQoAcAQIGdjsrTpnL9o394gAe68AAAAADInwd4gAd4oEAPAIACO70LsvQeZjA8wAM8kLYHAAAAQP48wAM8wAMFegAAFNjpqDxtKtc/+ocHeKALDwAAAID8eYAHeIAHCvQAACiw07sgS+9hBsMDPMADaXsAAAAA5M8DPMADPFCgBxoAeA6lpU1p+kf/8AAP8AAPBPbAsw0APBD4okiyQJLkIcWJB3iAB7LywD1Lg+HaUKdl1WkAC2DxAA/wAA/M5YGVUXX50vKouhAAAAAe4AEe4AEeKMgDG6tvWFrft/6jg1H1hI4vqOOR81zkbKwYKzzAA5l74MmX7Vv/saXmv8Fw7RczvxkFXajzAA/wAA/wQAsPrGysvvtU+Df/u+SSS35oMKquAwGolgd4gAd4gAd67YEb1vet//UXAKD54px96z8+GK7doeN73fHouAUdGwPGAA/wQC89MFy7c2249vdOC//xN80PBsO1/b28cYVf+PMAD/TEA8s9uQ9Z0yloHTjn4Dl/e5z3O34ebKy+ejCqvqZzOu0cxVlR4wEe4AEeCOuB4dqdK6Oq2jHwd/rBnv17frr5Y4HBxurnBqPq1sGoOgoKQAEP8MACPHB4MKo2fZypwcpw7X+vjKrbBhurD6yMqkdXRmvfGYyqRwbDtW8MhmtfptmZmvVckwODUfXbg+Ha+5aHaz+1U77P9Pjylct/dzBc+5nm/ICV4dpHBqPqisGoun8wqv5yAUUhLCkhT3ryQJIeWB5Vl81UsLyIAhSIr0DzV4UrB1Z+cnm4tr68sfr+lVG1d3lj9abBqDoCDMwYeYAH5vEAAIhfw70DBaIoYNVA8Z+n+Hst/wCAKKXZRSmwOAWsGijswp0H2ngAACyuTntnCnSugFUDwdAmGDynDJ8AgM5LsDekQHoKWDUoo+ALdv281QMAIL1arEUUSEoBqwZCY2to+Lo/fgAASZVajaFAPgpYNehPEAj1MvsSAORTb7WUAtkoYNWgzEABEnn1OwDIpqRqKAXyV8CqQV4BIdD73V8AIP+a6g4o0AsFrBr0O2zARHr9CwB6UTrdBAX6q4BVg/SCQ5j3o08AQH/rpjujQO8VsGrQjyACFIvpRwDQ+xLpBilQngJWDRYTKII8L90BQHm10R1ToGgFrBrkFVKgIl5/AYCiS6GbpwAFxgpYNYgXNEI8TW0BwHj0+0wBClBgBwWsGqQZYMBivn4BADsMeA9TgAIU2E0BqwbzBZAAX6x+AGC3Ee7nFKAABWZQwKrBYsMNXOyuPwCYYWB7CQUoQIFZFbBqsHswCe9uNAIAs45ir6MABSgQWAGrBt0EH8D4gc4AIPAAdjkKUIACoRWwagAMYkALAAg9Ul2PAhSgQIcKWDUAB7PCAQDocKB6KwpQgAJdKWDVABjsBgYAoKvR6H0oQAEKJKKAVQNw0MABAEhkQGoGBShAgUUrYNWgLDAAAIsecd6fAhSgQAYKWDXoHxwAgAwGniZSgAIUSFUBqwb5ggEASHVUaRcFKECBzBWwapA2HACAzAeY5lOAAhTITQGrBmmAAQDIbeRoLwUoQIEeK2DVoDs4AAA9HkhujQIUoEBfFHj5NS//kT379/z08nDtNf9/C9svDzZWPzcYVbcNRtXR3fa7+/lkqAAAfRkd7oMCFKBAoQpYNZgc8LuBz8qo2luoZdw2BShAAQr0WQGrBruCwS/1uf/dGwUoQAEKUOAMBawaVPWey8/912cI4wEKUIACFKBAiQoUtGrwnZfuvfCHS+xj90wBClCAAhSYSoE+rRosb6y+f6qb92QKUIACFKAABU5XILdVg5VR9c09+/f8rdPvwncUoAAFKEABCgRTYHBg8A+XN1ZfNhiuvWOwsfpby6Pq2sGoemgwqr6/21/pR/n5xurzg8vP/WfBbtCFKEABClCAAhRor8CCTkN8dnlj9d+3b6VnUoACFKAABSjQmQKRVg1uWR6u/VRnN+GNKEABClCAAhQIo8AMf2vwfwej6prBxuqrl+qll4RphatQgAIUoAAFKJCGAvXSS5pVg5Xh2r9dGa6tDjZWX/WKjdV/UY2qv5NGA7WCAhSgAAUoQAEKUIACFKAABShAAQpQgAIUoAAFKEABClCAAhSgAAUoQAEKUIACFKAABShAAQpQgAIUoAAFKEABClCAAhSgAAUoQAEKUIACFKAABShAAQpQgAIUoAAFKEABClCAAhSgAAUoQAEKUIACMRT4f5G8EXG2CGxzAAAAAElFTkSuQmCC;textShadow=1;" vertex="1" parent="1">
          <mxGeometry x="-2220" y="-510" width="30" height="30" as="geometry" />
        </mxCell>
        <mxCell id="CYchLR7dStGbC8uaJ82P-88" value="HR" style="image;sketch=0;aspect=fixed;html=1;points=[];align=center;fontSize=12;image=img/lib/mscae/Person.svg;textShadow=1;" vertex="1" parent="1">
          <mxGeometry x="-2467.45" y="-520" width="29.6" height="40" as="geometry" />
        </mxCell>
        <mxCell id="CYchLR7dStGbC8uaJ82P-93" style="edgeStyle=orthogonalEdgeStyle;rounded=0;orthogonalLoop=1;jettySize=auto;html=1;entryX=0;entryY=0.5;entryDx=0;entryDy=0;entryPerimeter=0;dashed=1;dashPattern=8 8;textShadow=1;" edge="1" parent="1" source="CYchLR7dStGbC8uaJ82P-88" target="CYchLR7dStGbC8uaJ82P-69">
          <mxGeometry relative="1" as="geometry">
            <Array as="points">
              <mxPoint x="-2510" y="-480" />
              <mxPoint x="-2510" y="-415" />
            </Array>
          </mxGeometry>
        </mxCell>
        <mxCell id="CYchLR7dStGbC8uaJ82P-95" style="edgeStyle=orthogonalEdgeStyle;rounded=0;orthogonalLoop=1;jettySize=auto;html=1;entryX=0;entryY=0.5;entryDx=0;entryDy=0;entryPerimeter=0;dashed=1;dashPattern=8 8;textShadow=1;" edge="1" parent="1" target="CYchLR7dStGbC8uaJ82P-70">
          <mxGeometry relative="1" as="geometry">
            <mxPoint x="-2467.45" y="-485" as="sourcePoint" />
            <mxPoint x="-2490.45" y="-420" as="targetPoint" />
            <Array as="points">
              <mxPoint x="-2467" y="-480" />
              <mxPoint x="-2510" y="-480" />
              <mxPoint x="-2510" y="-355" />
            </Array>
          </mxGeometry>
        </mxCell>
        <mxCell id="CYchLR7dStGbC8uaJ82P-96" style="edgeStyle=orthogonalEdgeStyle;rounded=0;orthogonalLoop=1;jettySize=auto;html=1;entryX=0;entryY=0.5;entryDx=0;entryDy=0;entryPerimeter=0;dashed=1;dashPattern=8 8;textShadow=1;" edge="1" parent="1" source="CYchLR7dStGbC8uaJ82P-88" target="CYchLR7dStGbC8uaJ82P-71">
          <mxGeometry relative="1" as="geometry">
            <mxPoint x="-2457.45" y="-475" as="sourcePoint" />
            <mxPoint x="-2450" y="-345" as="targetPoint" />
            <Array as="points">
              <mxPoint x="-2510" y="-480" />
              <mxPoint x="-2510" y="-305" />
            </Array>
          </mxGeometry>
        </mxCell>
        <mxCell id="CYchLR7dStGbC8uaJ82P-97" style="edgeStyle=orthogonalEdgeStyle;rounded=0;orthogonalLoop=1;jettySize=auto;html=1;entryX=0;entryY=0;entryDx=0;entryDy=45;entryPerimeter=0;exitX=0.075;exitY=1.05;exitDx=0;exitDy=0;exitPerimeter=0;dashed=1;dashPattern=8 8;strokeWidth=1;textShadow=1;" edge="1" parent="1" source="CYchLR7dStGbC8uaJ82P-88" target="CYchLR7dStGbC8uaJ82P-72">
          <mxGeometry relative="1" as="geometry">
            <mxPoint x="-2457" y="-470" as="sourcePoint" />
            <mxPoint x="-2425" y="-295" as="targetPoint" />
            <Array as="points">
              <mxPoint x="-2510" y="-478" />
              <mxPoint x="-2510" y="-245" />
            </Array>
          </mxGeometry>
        </mxCell>
        <mxCell id="CYchLR7dStGbC8uaJ82P-99" value="" style="image;aspect=fixed;html=1;points=[];align=center;fontSize=12;image=img/lib/azure2/other/Confidential_Ledger.svg;textShadow=1;" vertex="1" parent="1">
          <mxGeometry x="-1940" y="-239" width="49" height="49" as="geometry" />
        </mxCell>
        <mxCell id="CYchLR7dStGbC8uaJ82P-103" value="&lt;font style=&quot;font-size: 11px;&quot;&gt;SSO AUTH&lt;/font&gt;&lt;div style=&quot;font-size: 11px;&quot;&gt;&lt;font style=&quot;font-size: 11px;&quot;&gt;AZURE OR OKTA&lt;/font&gt;&lt;/div&gt;" style="shape=cylinder3;whiteSpace=wrap;html=1;boundedLbl=1;backgroundOutline=1;size=15;fillColor=#0050ef;fontColor=#ffffff;strokeColor=#FFFFFF;textShadow=1;" vertex="1" parent="1">
          <mxGeometry x="-1963.15" y="-836.86" width="93.15" height="66.86" as="geometry" />
        </mxCell>
        <mxCell id="CYchLR7dStGbC8uaJ82P-104" value="" style="verticalLabelPosition=bottom;html=1;verticalAlign=top;align=center;strokeColor=none;fillColor=#00BEF2;shape=mxgraph.azure.cloud;" vertex="1" parent="1">
          <mxGeometry x="-1870" y="-849.33" width="60" height="39.33" as="geometry" />
        </mxCell>
        <mxCell id="CYchLR7dStGbC8uaJ82P-106" style="edgeStyle=orthogonalEdgeStyle;rounded=1;orthogonalLoop=1;jettySize=auto;html=1;entryX=0.444;entryY=0;entryDx=0;entryDy=0;entryPerimeter=0;curved=0;startArrow=classic;startFill=1;" edge="1" parent="1" source="CYchLR7dStGbC8uaJ82P-103" target="CYchLR7dStGbC8uaJ82P-24">
          <mxGeometry relative="1" as="geometry">
            <Array as="points">
              <mxPoint x="-2010" y="-803" />
              <mxPoint x="-2010" y="-680" />
              <mxPoint x="-2040" y="-680" />
            </Array>
          </mxGeometry>
        </mxCell>
        <mxCell id="CYchLR7dStGbC8uaJ82P-110" value="" style="shape=image;verticalLabelPosition=bottom;labelBackgroundColor=default;verticalAlign=top;aspect=fixed;imageAspect=0;image=data:image/png,iVBORw0KGgoAAAANSUhEUgAAAOQAAABNCAYAAAC2RMirAAAAAXNSR0IArs4c6QAAAARnQU1BAACxjwv8YQUAAAAJcEhZcwAAEnQAABJ0Ad5mH3gAABiISURBVHhe7Z0HfFTF9sdPeu+dNJJAAqEJIkFEepWmSNEnKvKkPD8P9Fn5iP3vs4MPEfChPjs2FKUpUlQUaYIQkBI6hIT0EBJCEgj/+c3O4mazu3dusiGbMF8/4965ly259545Zc6c63SJQQqFwiFwFq8KhcIBUAKpUDgQSiAVCgdCCaRC4UAogVQoHAglkAqFA6EEUqFwIJRAKhQOhBJIhcKBUAKpUDgQSiAVCgdCCaRC4UAogVQoHAglkAqFA6EEUqFwIBp9PWRlQRFdKC+nqtJz5OzkxPc5sf+AsW+Kk4V9umBv94gKJ2cfb7HDMmfOVVB2USnbkv++2BA/8vF0Ez395JWco4Kz50XPNs7sZ8WG+pOXu6vYo7AF7vLisvN0uriMdp/Io00HTtHpojI6dLqIqk1EII6d01B/LwoP8OHnt210CPl7u5O3hxtFB/uRbz2urwyNI5DsK7M3bqFty5dR0cEj5FxYQpdyi8iLKWxP1lwvOZErXpnwObFfZ6rGPclFbNUNFy9PSnrtcQrs10PsscyPe07QlLe+p7PlFWKPNs/f3pvuHdBR9PRx4WI1Pfj+evrit31ij23iQgPokwdGUOuoILFHYYtFa3bRFxv30Z6T+ZTDhFIPnm6uFBPqRx9MH0Y9UqLF3oahUQTy7NETNG/IMDpTVU4u7Nv9L7qQ7yVn8rnIBJIJowdrbtUQSidyZseho4x6yru6fla2i7cXJS96gYKH9hF7LHMiv4T6PvUpHckpFnu06dchntY+Pb5OWhzacdRLX/ORW4Y+7eJo1RNjm6WGxB1ZdfGi6Mnh6uxMzjAbzDhbXkm3vrqU1uw6JvbUjU4tw2nLS3eRh1v9FIIWjSKQp1aupTemT+PbjiqQ4I7/LKfFv+wVPTky3pxSJ631Jxu5ez3xCRWWypmsT429gZ69rafoNS92HculWYs3UEWVvFC+clcf6pwQIXoGys5X0T3zV9GSTfu5kNeHVbPG0tAuiaLXcKigjg0m9G4ntuT5YedRsaWPLQezqKhM3jwe16ON2Gp+FLFBCS7D2vRj0q2I+YfmvLZsC329OaPewnhDmxgadE2C6DUsSiBtMLRzInfy9bCaCaSekd3Il78dYDeO3J0D86ldXKjoKSyx50Q+PfP5RrpYXS321A2YqPcPu5ZcLJjDDYGmQOYWldm1ZRWcpVydTnVjMvK6VmJLjr2Z+XQ874zoyQEzdcPeE6Knzfgb2oothTXeWbtLbNUPuB/dk1uIXsOjKZD7Mwvs2g5lFVFBiZyf5AiM6taaXF3kDYlTBaU8IKSH9buP07mKC6JnGx8PN7qtpxJIW2CA237ktOjVj9HdU/j0x5VCmawaYIRM1hGkOV91gVb8flj05Phq8wGxpU1HZq4GeHuIXvMk2M+LBnSMp0GdWkq3YB9P8W6DD5p75pzoydM7NZb+7/YbafbEfvTCHb1p+k3X0qR+HcTRK4NmlHXD7r9MKUx6V7N/XV5RJfb8RYCPBxvlq6jqQm2b3dfLnSqZX1V5weBbVf66ida8OotvO3KUFWB+cNzsb2nplgyxR5ukyEA6NH+q6NkGc2J9n/6U9jHrQYapg66h+ZMHMp+m+Y6luCVxn+kBLp5xuumPozk0+Lkv+FSSLBN6taP3/nkT9xWNn4OEAUvJKQ2J1FXFbwpgI1BEoA/Fh/tToK/nZScXx4JYPzTAm+LCArhgGueD8G8w2kWH+lFksI/hmPkfyPrOXh7kFhRI7pGh5BkbRZ4tY8mrVTx5JSeQV0oiebdJutx8O7atV/Nun0yuAX7iy7WBuQqzVQ+HTxfT1oPZomebwznFlCc5muPUIdqnVxhLz1fyrCM0ZKrUJejUEOC3GH8XBnMjEAjcO3qa+dzvJfafLJj4v4dpQlxr08+50sIIpDWkH9NybeNCyYP9+ENZhZRTVHY55QiClhofyidn957Ip8Kz5/kohz8Owto2LoSHnv88lkcl5RVU8ctfGtLd05PCExMpPCGRgqKjyT88jHyDgsjT14/cvbzI1cOdnF2YrhQnPSiqng42O8cu/r7k7CFv9p1kPmHc1IWiJ8edvdvThzOGiZ513l2XTlMWfl8jfcsauEEy376PooJ8xR7LQABX7TjCI74H2bWCT2W0TgBuQHc3F+rXPo66p0TzaLLeBANo9LKKStGzDq5Z+9iwGhPqn/66l95Zm87Pq5F4NpgvnDKIWjH3AJP5B7MLpc6JkZQWoeweNaS1bdyfSQOe+Zy7DzIgVe6Hp8bXmsdsDKQFElqvTWwIubm40PHcM1TMLrIRHGvHBBLH9p8sqDHa4cK3iw/jN1P60Vxm0jLTdcdOWvPsg4bjTOgiU5IpPKkVBcfFUmCLKPIODiYvf3/y8PYhNyaQTq6u7DsMWiEoJoa/Xmn6PLWYfv7zpOhp0zI8gHbOvkfT35swdzl9skEu+WAw047fPzlO9GoC82zHkRx6b306Ldt2iMor5W5GAFfkthva0t19O1BHdq1kfNS0mR9KWQG47gfenEytIoPoKLtv7l3wHQ9imYPppZWzxlD7uDD6ac8JGvbCkhr3kRbrnr2NDTDxfBtzmP2YGyALlMaiaUOobUyI2GMA8YMy9huyCpHTLAcCQP5MeWmBwcaSmyItkFDeEK6LzLiHiWBq9nCzgan7S+wYRkTT0djNFSOjwRbHe+GTVRQV0tqJY/jxpiKQK34/RCNe/Er0tAlkJv7Sx27hKW62iJk8n05JXvDVT45nJmtL0TOA87mc/bbZy7Yy3ylX101sDiK4Azq1pFm3Xk/XtYoSey2jVyCD2U1/y8tL6dd9mRY1X2MKJH5jILPyzKPpb/9jKB+sJs5bWeOetsWsMT1oxk3Xip51Mpjl0vvJxbXOhbQzgrdBCLlAmfkgEDQEbarYMfMfDo2IQI/xvU2Vnm1jKDpE3vfEyoI/mMayBTSarDCGMbPKXBhxTme8u5ZGv7KUmWmn6iWMANrg260HqdtjH9K8Vdulb0Itqtn9cd+iH2jD3pO6zNArBX4TzHpEZk3b22t2ci0JDWp+zFrDwA2TW4ufmLWVY+H9uqIDvp7u3Je0hJ+3O3la8UP8mQnU0Em5DQ2W32hpO3MwUtu6/+Z/v0NsaTOkc5LYMnAou4jGz/mWFq7+Q+yxLzM//pn+vWSTXYRy2+FsWpte20x1dFZsP0wl5yrpuiTb1oIpyMM9xkxzW+Ccws+1ZJxKCSR8xJgwP4oN96eWkYE8agrzFUDN82Nh/pTERpOoYF9mpho+FsED/Nv4iABKYO+LDPLlgZ+miDszvZGxAfNclp/+PMFGX8tWwXnm432z5aDo2QYmVc+2NZf9IGl62Ta599cFaNsXvt5Ej374k8WpLD1gpUVhabnoNS0+27iX7urTXvS0ySsppzXptleWFJdVWLWedERZPah9y1DuEx5hozMyUoxvxTRIalwoF04EdfLOlF3WDJgOaRuLvMtLtPtYHg8GmfqQbu7uFBwcSkEBweRDLuTt7MYEGRrVjX0e8x2dnJkQ/BWO9vX04a96CBrUk8LHDRe9uoOlUQOf/ZybdrJ8/MAIuuPGVNH7i1/2naRBz33BBVOLUD8vWsH8q7TWLfh3z3hnLf1vfbo42rDAt/pg+vBaKYSyPiSuG/xDrXTCxvQhbYFz/t0TY6nH4x/T/lNyc8VdEiP4Ui1zn9TIpgNZ1OvJTyy6cNLq6lxFJRWcLWeCeJb7iqZyjBOXX3KOT4VAHZuKeGXVBTpdVMpXwsOfNKeafW5lZg6V7TlAZbv209kde6hk8w4q/nkrFa/fRMVrN1LhD79Q4eoNvOUvXa27le2Wz4SxxbVJkRTLNL4eXl+2VWzVBDcz/G4ZQphAdowP59vIAvpso9wiZiMwtyFQGOnH39CGzyfLgtH80Y9+5EuZ6gLuE725vY5ERnYhz09+TsdSN8QGNmVkiV5t3l23y2o8RVogEbg5dKqIDmcV1ZrIvnjxEmVkFtKBzAJmc9dcQoTAw8FT7I86nseE1fAjnI40PX8CwGyd2FdfRYDt7OKYL3LGoLWLWQuyAY6b05L5PCEu4gLmd8pqDhgV/TvE05EF0+jbmbfyFe+fPTiK9r8xmW7qksgtDxkOsOv30tLNNQbaqwWk4f38Zyb1aR/H50hlQdTb0vWFMkNU3Bq6HDrjxyNqZgqWuAiLstYxCCR8IBy/rCHLm05yuTko0YHglh5gQpmCifuth6yPoObcJdZlYn7xN8mKAiDM35vmTx7ENGLN+kEwQz9/6Gbq1lo+WIHVE0dz5asnNDW6tYriCRKWGjKJMDfbq22s+Nfa7DyaYzG4g/WyiKZaQ5dA4kIiYmqJYF8vbhpZAj4mAjzNAZiP5gEWLeATYWQ0knumnGsdGbD2MZX74EQPvr9O19TR2OvbUEp0sOjVxNfTjW5Jk08JROLB938cEb3mx0t39mE+7FiL7Y2/9+fWEaadZIN62cx923aoto/9xW/7xZZlpAQSjjkipDyS2iKIZyO4CYcVEVjMz8WwY62ig/i20ZlFACiO7Y8L96dE9j5EYPVEKRuSaqbVH585kyZP+rvFlnPa+vKdoV2SLlsEMqCwUiHzv428/6N8QGbM9Sn8dV36ceaL6VvWNY75i7ZIjgq2OoiaA5dl68HT9Z5Lxr2BQlGPjEqj2RP7cjN67qT+dN+QznxQb0xwTS039j/GEKYtg0xWldgCbon5qh9oxj0n8kTPMlICCcccE904mZiHPFdZRRfESmyYqAj2eHu48uwUlE80rtLGxYO/CRMPpfRwU+LCOgrFRcWUn5dnsV2wUWSpS0KErptnLxPIk/lnRY/oo5/+FFu2gRbry3wXgHkrvcAMswW0vXFglWHnsZwaml4vyHp59a6+zJ8dTS8zjfTgiG480DRjWFd67Jbu1IIN2I4MzNZ/SmThGEE+sWmSAEpOHsu1PahKXw1I/JmyCjrFbiz4hKb+KoQsv6ScsgtLuQY0HoMgY94RNniRZL3RKwVS8Rb89y1aunyZxRYdbd0shRmIGqyy4Nwt2WwwVdKP51EWOx8yIOE6hn0PhAAXUy9et88mp1tfttpufOITPoDKgtxLmWkaa/Tv0JImD+hEocy3FUqnyfHQyG5SuaoAc6+IqBrZkpHF99lCWiChCY/lFNPh7CIeeTIF5h/2oxpAqVna0Hl2M2Le8kBmIdM6jqMd6wOCJYi66WHJJsPUi60ImznXME2M4rwYZbWyP64EGFj2Sq7btAQCYvUpJO0IwGoZ3lW+rMu8VTt4EA98vtG2/wjk7RUGrE2MbOZ+BDQktCI0orlJaoissjfxY9bNHdjpTsx8MjRXcmL+J7ORecO2s5srb051aS72T9vTW9cGaySRsSJbdxVgJTzcBJw3Pas3GpL6ZNwYJ+6bOrekJUungmKJGeacYUGisqAteAIMEyKbasu0YgCSbBHEKWAfbg4yciB8MGvNCQ/0oTI2Shgnl00rBiAbJyQklEIioigwIoL8AgLJ28eXPDy9yN3Dg1xd3cRaSMPYERBkOWpoC76wubP+ko5aJPzjLV2aC5PyqIaGGqxa4IIfXjCNaUhfvvxn4LOf1Us72YsXJ/Smmczfk83UMYI1h3nvzRA92zRGps76Z2+/7K9rgeBa36cW8+VkWkDR/Gt4Vwphf/+sTzaIvZbpy36/lIaEECZEBFJiVBC1Zv4TmjGXFcewTjIhMoCSY4KpVYvgy7msCBWnxoVRfIQ/pcTg3wTyEd8UZ3c38mgRQd7JieTboQ0FdO9MAb3TKGhgTwoe0odChvWlkBEDKHSkoYXfPlJ3awhhBCj7oIdvth6U9gWHXJPAhREggHbOQTSkpQFXhoTwQLHV9EGa342pcssAoe+w/nP2t5YztkwZ3T1ZTiDhP2YWlBiCNEyg4EMa075w7OCpIq5uPZlwZSO1TmTkwOeA3wnB9HB3oayCUm7uXoq9cmX1GpKbuyXz6LIsSJJAk2FS/05ii3iWDvJZmzJNNYhjCfwt02/qWku5WGPnsVxm6tsOaiJW0LNNtLzJisgq5hEruE9IlG+SbQBtido5WKCMsgmmo2igLxLFXbnAIrEcZkhTXKBsCcwrjXhxiS7TTQZEVn9/dSJFMDcAYFoJi6P1+J/gp+duF1v2A3WTEsIDdJusyApCwrUMjm6yGhnwzGe0zkL1g7qApX1YQCAn4gzk5SGxHIJoKowA2vI083NQQc3cpCkureBJ5yiQrOcENwXgFzVEHRas1jcNrWPyPipI/yoXCHZvdqFttR5tYqgr+77uydEWj5s3CKPCwL0DOnFFYw9grqJig30+7SoFVsOAjjVX8dcX+OQQctNUQ2yjJo1eUEVAi6WbM+hvry+jiW+u5Kv60f791SZ6fcU23r7adIBWbj/M0+ZQdgLRQoWBtOQW1Cqq/r4xEg7Gime1aApkp6QIu7SuyVHUq0Mcb93b1jY7ueXM2iVMjWCbvWIbZrBhvzhWz8Y/E59vJ/SaOVq4u7hQ/47xNXwubGvVuLHE/9bvFlvWmbvyd560/tmv+3j1AbQnFm+gB99bz9uY176h4cx8HPr8l5Qy/W3NxbdXE0gO0VNNwBojr2tNkWJJnKYP2RCczcun59O6820XcqJAVy/yLq9yyELJMqCQ8pcaScOywDRFkWXzHFNMGaXMeJu7DbJAs350/3AanZbMNa8puOxfb8mgifNWXZ641gIJEUcWTuWpkMqHNIDBbNRL8sXPzME1Wv3UOOqValhJ0igma1WuyTwcuzGqz9ctlO4oPDoqTWzVn9FpKRYTvpHhMmdiP9GTAwG26e+soTnLt5HphD4WHc9duZ2mvrVaWhjB4M4JzWbVjr0YfE3Ly9qtLnSID6tRfrJRBLL8mP5EaUemY8swSmmhP2HBHPikyJW0BlZ+XJ+ib8oI1cEf+fBHipj0JjM5F3GzM+iu/9C/3lvHo7eyYJAYz/wc2VD/1QJmEJ4eV/cH58JyMF1Bos6uHcBNajQ56kMqEiwirEcxIbAPM4G1VvnPFpj/zcgq4oGZugCzF49sV9RmVLdWfB6xLgy/NqnGIKcE0g5AUNKSo3QtZbIE1ttpgcej3dm7HV3JdaXtYkNpwZRBFk1phWEZW78O+v3PiAAf6mOW36t5B5UVFdm1leYX0IU6jPCODubxrFVTkAE3e+9UuYs6Z2J/vobwStS6xZO8Fk4ZXCetfLWATLTB1yTyVz08MKIr88lrvkdTIM9knbZrKzmdQxd01qRpCqTGhPIq13UlPMDbarkNcyCIeH4hHk3XkCBY8fUjo3nVdoVthnRO0LW0DOVwHmCDqjnaNhZmRezZmimYK5wysO4CAmHWkwWDkXXupAG8BAZKRBrLTNgDZIzgwTvbXrmbB6zs+NHNFpitE3rVrr9rDUzRICBkjvIh7QiWV2GJWl24lfmGdYlg4rF3Kx6/lT/EFfWL6gP8UlRZW/H4GJp/70CeeqeQ56GRctNfiDUgXmBpoNNMDMjaI/eoND2Ul5TQogkT+GS/p4s7eTq5kQ97jQoIIi8nV3K75ESurMG6Nk8M8OJ7646zpwclPP8wBfSyPr1QH/CkJD2lGo389sKdPDe2PmAi/dNf9/HnL57IK+E1clHpHM38KkP4MMEPMyvUz5t6pcbQBCbcaZKlIce8+g2lH88VPW3wKPYlD98serbBQt7JC7/XVS7kgxnD6Hrmx4MtB7PpzrnL+bYsH90/QvpvtwYW5/v+bY7mcylRqHr9M7ddriZoSqMI5HkmkB9NnkZlsdHk5utPFR7uFBgeRlOnTSN/f//a5pc9bSb2Ua7+flwwGwJMupdX6k+i13oIqx5wY+SeKeNP1kLCP5p50V6YS/ARcXPAVNYbtEGlej0Fr/DsUNkBB8v2sFxJ49asQQgbVNzFOly8X88cK4DJqTcoY87763fzZ65oMbxrEn396GiLUflGEciKc+W0aN6bVOj9100QHh5ODz/MNFeAWk2gcDzeWLmdJ/13bRXJp7lMwaLzt1b/Qf/9YafUILX0sdF0s5XH5DeKQOIrM44foxOZhod3Vl28QJXV1XTn3XcrgVQ4JKjSZw8QvEufM8nqoxsbRSBN4V/OfkJl9UUKT0okH1/Hrs2puDqxl0CiLu3Do6zHLxo9yurC7HZ3b2+Kbt1aCaOiWYMo+NAutrOxNDVkab52hbS6gCpyLu7u5MwE0tXN8KpQOCr20JDIrnrt7r42Uyw1BVKhUNRfIOOZdtw7dzJpFUVrdJNVoWjuICUSz+eUqVCoBFKhaEDwHJPFD4ykjvFhYo9tlEAqFHYGKZBYbDBj2LW0/417qUtiRO1kFysoH1KhkGDywu94keu9mflW10gkRQbxchxIHMdCc2Rf6V0jqwRSoXAglMmqUDgQSiAVCgdCCaRC4UAogVQoHAglkAqFw0D0/6rhqQx2QYI2AAAAAElFTkSuQmCC;" vertex="1" parent="1">
          <mxGeometry x="-2328.83" y="-778.0699999999999" width="88.83" height="30" as="geometry" />
        </mxCell>
        <mxCell id="CYchLR7dStGbC8uaJ82P-111" style="edgeStyle=orthogonalEdgeStyle;rounded=1;orthogonalLoop=1;jettySize=auto;html=1;entryX=0.358;entryY=0.038;entryDx=0;entryDy=0;entryPerimeter=0;curved=0;" edge="1" parent="1" source="CYchLR7dStGbC8uaJ82P-110" target="CYchLR7dStGbC8uaJ82P-24">
          <mxGeometry relative="1" as="geometry">
            <Array as="points">
              <mxPoint x="-2284" y="-710" />
              <mxPoint x="-2056" y="-710" />
            </Array>
          </mxGeometry>
        </mxCell>
      </root>
    </mxGraphModel>
  </diagram>
</mxfile>
